<svg width="48" height="47" viewBox="0 0 48 47" fill="none" xmlns="http://www.w3.org/2000/svg">
<g filter="url(#filter0_i_1121_41270)">
<g clip-path="url(#clip0_1121_41270)">
<rect x="0.786011" width="47" height="47" rx="15.6667" fill="#191B1D"/>
<rect x="0.786011" y="-3.19873" width="47" height="52.0917" fill="url(#paint0_radial_1121_41270)"/>
<path d="M15.8877 27.3484C15.3763 27.4864 14.9136 27.5229 14.4996 27.4579C14.0938 27.3849 13.7488 27.1901 13.4647 26.8735L9.19083 22.0761C9.09342 21.9706 9.04472 21.8488 9.04472 21.7108C9.05283 21.5728 9.11777 21.451 9.23954 21.3455L9.59264 21.0168C9.75499 20.8706 9.90922 20.7814 10.0553 20.7489C10.2096 20.7164 10.3679 20.7286 10.5302 20.7854L17.6654 23.318L15.2789 23.245L21.44 21.1263L21.2087 22.2831L14.2318 14.88C14.1019 14.742 14.0532 14.5999 14.0856 14.4538C14.1181 14.3077 14.2074 14.2103 14.3535 14.1616L15.1937 13.9059C15.5346 13.8085 15.8755 13.8369 16.2165 13.9911L26.4201 18.8129C26.7123 18.9509 26.964 19.028 27.175 19.0442C27.3942 19.0523 27.6296 19.0158 27.8812 18.9346L35.1991 16.4263C35.8972 16.1909 36.5953 16.0814 37.2934 16.0976C37.9915 16.1057 38.6044 16.2437 39.132 16.5116C39.6677 16.7713 40.033 17.165 40.2278 17.6927C40.4389 18.269 40.4105 18.8332 40.1426 19.3852C39.8747 19.929 39.4404 20.412 38.8398 20.8341C38.2391 21.2562 37.5491 21.5728 36.7698 21.7839L15.8877 27.3484ZM11.4312 35.5064C11.1634 35.5064 10.932 35.409 10.7372 35.2141C10.5505 35.0193 10.4572 34.788 10.4572 34.5201C10.4572 34.2522 10.5505 34.0209 10.7372 33.8261C10.932 33.6394 11.1634 33.546 11.4312 33.546H37.7074C37.9753 33.546 38.2066 33.6394 38.4014 33.8261C38.5962 34.0209 38.6936 34.2522 38.6936 34.5201C38.6936 34.788 38.5962 35.0193 38.4014 35.2141C38.2066 35.409 37.9753 35.5064 37.7074 35.5064H11.4312Z" fill="black"/>
</g>
</g>
<defs>
<filter id="filter0_i_1121_41270" x="0.786011" y="0" width="47" height="48.3995" filterUnits="userSpaceOnUse" color-interpolation-filters="sRGB">
<feFlood flood-opacity="0" result="BackgroundImageFix"/>
<feBlend mode="normal" in="SourceGraphic" in2="BackgroundImageFix" result="shape"/>
<feColorMatrix in="SourceAlpha" type="matrix" values="0 0 0 0 0 0 0 0 0 0 0 0 0 0 0 0 0 0 127 0" result="hardAlpha"/>
<feOffset dy="1.3995"/>
<feGaussianBlur stdDeviation="1.92432"/>
<feComposite in2="hardAlpha" operator="arithmetic" k2="-1" k3="1"/>
<feColorMatrix type="matrix" values="0 0 0 0 1 0 0 0 0 1 0 0 0 0 1 0 0 0 0.25 0"/>
<feBlend mode="normal" in2="shape" result="effect1_innerShadow_1121_41270"/>
</filter>
<radialGradient id="paint0_radial_1121_41270" cx="0" cy="0" r="1" gradientUnits="userSpaceOnUse" gradientTransform="translate(32.0214 -1.14248) rotate(117.149) scale(60.1555 53.896)">
<stop stop-color="#FFD60A"/>
<stop offset="0.680025" stop-color="#FF9500"/>
<stop offset="1" stop-color="#FF008A"/>
</radialGradient>
<clipPath id="clip0_1121_41270">
<rect x="0.786011" width="47" height="47" rx="15.6667" fill="white"/>
</clipPath>
</defs>
</svg>
