<svg width="228" height="132" viewBox="0 0 228 132" fill="none" xmlns="http://www.w3.org/2000/svg">
<path d="M26.0295 35.7351C26.0295 35.7351 25.9845 35.7051 25.8945 35.6451C25.8045 35.6151 25.6845 35.5851 25.5345 35.5551C25.4145 35.5251 25.2645 35.5101 25.0845 35.5101C24.6045 35.3901 24.2595 35.1201 24.0495 34.7001C23.8395 34.3101 23.7945 33.8751 23.9145 33.3951C24.0345 33.2751 24.1245 33.0201 24.1845 32.6301C24.2445 32.2401 24.2745 31.9251 24.2745 31.6851C24.3945 31.4451 24.4695 31.2801 24.4995 31.1901C24.5295 31.0701 24.6045 30.7701 24.7245 30.2901C24.8145 29.7801 24.9645 29.0751 25.1745 28.1751C25.4145 27.2451 25.6695 26.2551 25.9395 25.2051C26.2395 24.1551 26.5245 23.1501 26.7945 22.1901C27.0645 21.2301 27.3045 20.4201 27.5145 19.7601C27.7545 19.1001 27.9195 18.7251 28.0095 18.6351C28.0095 18.6351 28.0095 18.5901 28.0095 18.5001C28.0095 18.3801 28.0095 18.2601 28.0095 18.1401C28.0095 18.1401 28.0245 18.0051 28.0545 17.7351C28.1145 17.4351 28.2645 17.1051 28.5045 16.7451C28.6245 16.4151 28.7295 16.0551 28.8195 15.6651C28.9095 15.2751 28.9545 15.0201 28.9545 14.9001C29.0745 14.7501 29.2395 14.3901 29.4495 13.8201C29.6895 13.2201 29.9145 12.6351 30.1245 12.0651C30.3045 11.5851 30.4995 11.0751 30.7095 10.5351C30.9495 9.99512 31.1445 9.53012 31.2945 9.14012C31.4745 8.75012 31.5645 8.55512 31.5645 8.55512C31.5645 8.43512 31.5645 8.37512 31.5645 8.37512C31.5645 8.34512 31.5645 8.33012 31.5645 8.33012C31.6845 8.21012 31.9695 7.61012 32.4195 6.53012C32.8995 5.42012 33.5445 3.99512 34.3545 2.25512C34.4745 2.01512 34.6245 1.74512 34.8045 1.44512C34.9845 1.14512 35.0745 0.935119 35.0745 0.815118C35.2245 0.575118 35.4345 0.470117 35.7045 0.500117C35.9745 0.500117 36.2445 0.590118 36.5145 0.770119C36.8145 0.950118 37.0395 1.20512 37.1895 1.53512L37.6395 2.25512L36.0195 5.49512C35.5395 6.33512 35.1345 7.10012 34.8045 7.79012C34.5045 8.48012 34.3545 8.88512 34.3545 9.00512C34.3545 9.00512 34.2645 9.24512 34.0845 9.72512C33.9045 10.2051 33.6945 10.7751 33.4545 11.4351C33.2145 12.0951 33.0045 12.6951 32.8245 13.2351C32.4945 14.1651 32.1795 14.9301 31.8795 15.5301C31.6095 16.1301 31.4745 16.4901 31.4745 16.6101C31.4745 16.5501 31.8045 16.5051 32.4645 16.4751C33.1245 16.4451 33.9645 16.4301 34.9845 16.4301C36.0045 16.4301 37.0395 16.4301 38.0895 16.4301C39.1695 16.4001 40.1145 16.3851 40.9245 16.3851C41.7645 16.3551 42.3345 16.3101 42.6345 16.2501L44.9745 16.0251L46.5045 11.3901C46.7445 10.5501 47.0595 9.53012 47.4495 8.33012C47.8395 7.13012 48.1845 6.11012 48.4845 5.27012C48.9645 3.89012 49.3395 3.03512 49.6095 2.70512C49.8795 2.37512 50.1945 2.21012 50.5545 2.21012C50.6445 2.21012 50.7645 2.24012 50.9145 2.30012C51.0945 2.33012 51.2595 2.40512 51.4095 2.52512C51.5895 2.61512 51.7095 2.75012 51.7695 2.93012C52.1295 3.26012 52.2945 3.63512 52.2645 4.05512C52.2645 4.47512 52.0245 5.03012 51.5445 5.72012C51.0645 6.53012 50.6595 7.41512 50.3295 8.37512C50.0295 9.30512 49.7595 10.0701 49.5195 10.6701C49.5195 11.0301 49.4745 11.3301 49.3845 11.5701C49.2945 11.7801 49.1895 11.9451 49.0695 12.0651C49.0095 12.1251 48.8895 12.3501 48.7095 12.7401C48.5295 13.1301 48.3645 13.5201 48.2145 13.9101C48.0645 14.3001 47.9895 14.5401 47.9895 14.6301C47.9895 14.8401 47.9445 15.0951 47.8545 15.3951C47.7645 15.6951 47.6595 15.9051 47.5395 16.0251C47.4795 16.2051 47.3445 16.6551 47.1345 17.3751C46.9245 18.0951 46.6845 18.9501 46.4145 19.9401C46.1445 20.9001 45.8595 21.8451 45.5595 22.7751C45.2595 23.6751 44.9895 24.4251 44.7495 25.0251C44.7495 25.2351 44.6745 25.5051 44.5245 25.8351C44.3745 26.1351 44.2995 26.4051 44.2995 26.6451C44.1795 27.0051 44.0295 27.4551 43.8495 27.9951C43.6695 28.5351 43.5795 28.8801 43.5795 29.0301C43.4295 29.7201 43.2645 30.4251 43.0845 31.1451C42.9345 31.8651 42.7995 32.4801 42.6795 32.9901C42.5895 33.5301 42.5445 33.8451 42.5445 33.9351C42.4245 34.0551 42.2445 34.0701 42.0045 33.9801C41.7645 33.8901 41.4795 33.7851 41.1495 33.6651C40.5795 33.3351 40.2345 32.9751 40.1145 32.5851C40.0245 32.2251 40.1445 31.7001 40.4745 31.0101C40.6245 30.7701 40.8045 30.1851 41.0145 29.2551C41.2545 28.2951 41.4945 27.3501 41.7345 26.4201C41.9145 25.9701 42.1095 25.3701 42.3195 24.6201C42.5295 23.8401 42.7395 23.0601 42.9495 22.2801C43.1595 21.4701 43.3395 20.7951 43.4895 20.2551C43.6395 19.6851 43.7445 19.3701 43.8045 19.3101C43.8045 19.1901 43.8045 19.0851 43.8045 18.9951C43.8045 18.9051 43.8045 18.8601 43.8045 18.8601C43.7445 18.8001 43.3695 18.7551 42.6795 18.7251C41.9895 18.6651 41.1345 18.6501 40.1145 18.6801C39.0945 18.6801 38.0295 18.7101 36.9195 18.7701C35.8395 18.8001 34.8645 18.8751 33.9945 18.9951C33.6645 18.9951 33.2895 18.9951 32.8695 18.9951C32.4495 18.9951 32.1195 18.9951 31.8795 18.9951C31.5495 18.9951 31.2645 18.9951 31.0245 18.9951C30.8145 18.9951 30.7095 18.9951 30.7095 18.9951C30.6795 19.0851 30.5745 19.4001 30.3945 19.9401C30.2145 20.4801 30.0045 21.1401 29.7645 21.9201C29.5245 22.6701 29.2695 23.4501 28.9995 24.2601C28.7595 25.0401 28.5495 25.7601 28.3695 26.4201C28.2195 27.0501 28.1145 27.5001 28.0545 27.7701C27.9345 28.3101 27.7695 28.9851 27.5595 29.7951C27.3795 30.6051 27.1695 31.4301 26.9295 32.2701C26.7195 33.1401 26.5245 33.8901 26.3445 34.5201C26.1945 35.1501 26.0895 35.5551 26.0295 35.7351Z" fill="#34C759"/>
<path d="M53.816 31.3251C53.426 31.3251 53.111 31.2501 52.871 31.1001C52.661 30.9501 52.391 30.7401 52.061 30.4701C51.491 29.8701 51.086 29.3001 50.846 28.7601C50.606 28.1901 50.531 27.6501 50.621 27.1401C50.711 26.9001 50.741 26.6751 50.711 26.4651C50.711 26.2251 50.711 26.1051 50.711 26.1051C50.561 25.9551 50.516 25.8651 50.576 25.8351C50.636 25.7751 50.696 25.6851 50.756 25.5651C50.936 25.5651 50.996 25.4001 50.936 25.0701C50.876 24.8301 50.996 24.3051 51.296 23.4951C51.596 22.6851 51.971 21.9201 52.421 21.2001C52.601 20.9001 52.871 20.5101 53.231 20.0301C53.591 19.5201 53.981 19.0251 54.401 18.5451C54.851 18.0351 55.256 17.6301 55.616 17.3301C56.366 16.7001 57.026 16.2351 57.596 15.9351C58.166 15.6351 58.781 15.4101 59.441 15.2601C60.101 15.1101 60.551 15.0351 60.791 15.0351C61.061 15.0351 61.421 15.2751 61.871 15.7551C62.561 16.0551 63.056 16.4151 63.356 16.8351C63.686 17.2551 63.896 17.8701 63.986 18.6801C64.076 19.5801 64.001 20.6151 63.761 21.7851C63.551 22.9251 62.846 24.3501 61.646 26.0601C60.896 27.1401 60.206 27.9501 59.576 28.4901C58.946 29.0001 58.196 29.5101 57.326 30.0201C56.696 30.4401 56.126 30.7551 55.616 30.9651C55.106 31.1451 54.506 31.2651 53.816 31.3251ZM58.136 26.5551C58.856 25.7451 59.426 24.9801 59.846 24.2601C60.296 23.5401 60.716 22.6251 61.106 21.5151C61.226 21.1851 61.301 20.7801 61.331 20.3001C61.361 19.7901 61.346 19.3251 61.286 18.9051C61.256 18.4551 61.151 18.2001 60.971 18.1401C60.611 17.9301 60.176 17.8701 59.666 17.9601C59.156 18.0201 58.601 18.3051 58.001 18.8151C57.071 19.5951 56.261 20.5701 55.571 21.7401C54.881 22.8801 54.206 24.1851 53.546 25.6551C53.096 26.7351 52.991 27.6051 53.231 28.2651C53.501 28.8951 54.056 29.1201 54.896 28.9401C55.766 28.7301 56.846 27.9351 58.136 26.5551Z" fill="#34C759"/>
<path d="M70.2758 29.9751C69.8258 29.9751 69.4058 29.7051 69.0158 29.1651C68.6558 28.5951 68.3858 27.8751 68.2058 27.0051C68.0558 26.1051 68.0108 25.1751 68.0708 24.2151C68.0708 23.2551 68.1158 22.4901 68.2058 21.9201C68.3258 21.3201 68.4458 20.7351 68.5658 20.1651C68.6558 19.9851 68.7008 19.8351 68.7008 19.7151C68.7308 19.5951 68.7608 19.4001 68.7908 19.1301C68.8508 18.8601 68.9558 18.4101 69.1058 17.7801C69.2258 17.2701 69.3458 16.8501 69.4658 16.5201C69.5858 16.1901 69.7058 15.9651 69.8258 15.8451C69.9758 15.6651 70.1708 15.5601 70.4108 15.5301C70.6508 15.4701 70.8908 15.4851 71.1308 15.5751C71.3708 15.6651 71.5658 15.8301 71.7158 16.0701C71.8958 16.2201 71.9858 16.5651 71.9858 17.1051C72.0158 17.6151 71.9858 18.1551 71.8958 18.7251C71.8058 19.2651 71.6708 19.6551 71.4908 19.8951C71.4308 20.0451 71.3558 20.4351 71.2658 21.0651C71.2058 21.6951 71.1308 22.3551 71.0408 23.0451C70.9808 23.7351 70.9058 24.2901 70.8158 24.7101C70.7258 25.2501 70.7708 25.6851 70.9508 26.0151C71.1608 26.3451 71.5358 26.3601 72.0758 26.0601C72.6458 25.7301 73.3958 24.8901 74.3258 23.5401C74.9558 22.6401 75.4358 21.9051 75.7658 21.3351C76.0958 20.7651 76.3508 20.2401 76.5308 19.7601C76.7408 19.2501 76.9508 18.7101 77.1608 18.1401C77.3108 17.6601 77.4458 17.2701 77.5658 16.9701C77.7158 16.6401 77.8508 16.4301 77.9708 16.3401C78.1808 16.1901 78.4208 16.1301 78.6908 16.1601C78.9908 16.1901 79.3208 16.3251 79.6808 16.5651C80.0408 16.9251 80.2208 17.3601 80.2208 17.8701C80.2208 18.3501 80.0408 18.9501 79.6808 19.6701C79.4408 20.1501 79.2008 20.7651 78.9608 21.5151C78.7508 22.2651 78.5708 23.0301 78.4208 23.8101C78.3008 24.5601 78.2408 25.1751 78.2408 25.6551C78.2408 26.2551 78.3158 26.6151 78.4658 26.7351C78.6458 26.8251 78.8558 26.8701 79.0958 26.8701C79.4558 26.8701 79.8908 26.7351 80.4008 26.4651C80.9108 26.1951 81.4808 25.7301 82.1108 25.0701C82.3808 24.8001 82.7108 24.4101 83.1008 23.9001C83.4908 23.3601 83.8658 22.8051 84.2258 22.2351C84.6158 21.6351 84.9308 21.1101 85.1708 20.6601C85.4408 20.2101 85.5758 19.9251 85.5758 19.8051C85.5758 19.6251 85.7108 19.3701 85.9808 19.0401C86.1608 18.8001 86.2958 18.6201 86.3858 18.5001C86.5058 18.3501 86.7158 18.2001 87.0158 18.0501C87.2558 17.9301 87.4658 17.9151 87.6458 18.0051C87.8258 18.0651 88.0208 18.2151 88.2308 18.4551C88.3808 18.5751 88.4558 18.7551 88.4558 18.9951C88.4858 19.2351 88.5008 19.5351 88.5008 19.8951C88.4108 20.2251 88.2608 20.6601 88.0508 21.2001C87.8708 21.7101 87.6608 22.2051 87.4208 22.6851C87.2108 23.1351 87.0308 23.4501 86.8808 23.6301C86.7608 23.7501 86.5508 23.9751 86.2508 24.3051C85.9508 24.6051 85.6808 24.9351 85.4408 25.2951C84.6908 26.1951 84.1508 26.7801 83.8208 27.0501C83.4908 27.3201 83.2058 27.5751 82.9658 27.8151C82.3358 28.4451 81.6758 28.9251 80.9858 29.2551C80.2958 29.5551 79.6358 29.7051 79.0058 29.7051C78.4058 29.7051 77.8958 29.5551 77.4758 29.2551C76.5458 28.7751 76.0808 27.9651 76.0808 26.8251C76.0808 26.5851 76.0358 26.3751 75.9458 26.1951C75.8858 25.9851 75.8558 25.8801 75.8558 25.8801C75.7358 25.8801 75.5708 25.9101 75.3608 25.9701C75.1808 26.0301 74.9858 26.2401 74.7758 26.6001C74.5058 27.1101 74.0708 27.6351 73.4708 28.1751C72.9008 28.6851 72.3158 29.1201 71.7158 29.4801C71.1158 29.8101 70.6358 29.9751 70.2758 29.9751Z" fill="#34C759"/>
<path d="M104.556 30.6051C104.106 30.5451 103.716 30.2301 103.386 29.6601C103.086 29.0601 102.906 28.5201 102.846 28.0401C102.876 27.8001 102.906 27.4551 102.936 27.0051C102.996 26.5551 103.056 26.0901 103.116 25.6101C103.236 25.0401 103.401 24.3501 103.611 23.5401C103.821 22.7001 104.031 21.8601 104.241 21.0201C104.481 20.1801 104.691 19.4601 104.871 18.8601C105.051 18.2601 105.171 17.9001 105.231 17.7801C105.381 17.5401 105.621 17.4801 105.951 17.6001C106.281 17.7201 106.551 17.9001 106.761 18.1401C106.941 18.3801 107.046 18.6651 107.076 18.9951C107.136 19.3251 107.091 19.8051 106.941 20.4351C106.821 21.0651 106.581 21.9951 106.221 23.2251C105.891 24.4251 105.636 25.4001 105.456 26.1501C105.306 26.8701 105.246 27.6351 105.276 28.4451C105.156 29.4651 105.066 30.0951 105.006 30.3351C104.946 30.5451 104.796 30.6351 104.556 30.6051ZM109.731 12.6501C109.611 12.7401 109.491 12.7851 109.371 12.7851C109.281 12.7551 109.116 12.6651 108.876 12.5151C108.666 12.4851 108.396 12.3501 108.066 12.1101C107.766 11.8401 107.496 11.5701 107.256 11.3001C107.046 11.0001 106.941 10.8201 106.941 10.7601C106.911 10.4601 106.926 10.0851 106.986 9.63512C107.076 9.15512 107.241 8.73512 107.481 8.37512C107.721 7.98512 108.066 7.77512 108.516 7.74512C108.636 7.74512 108.741 7.76012 108.831 7.79012C108.921 7.82012 109.191 7.92512 109.641 8.10512C109.881 8.55512 110.121 9.06512 110.361 9.63512C110.601 10.1751 110.706 10.7151 110.676 11.2551C110.646 11.7651 110.331 12.2301 109.731 12.6501Z" fill="#34C759"/>
<path d="M117 31.9101C116.58 31.7901 116.235 31.6551 115.965 31.5051C115.695 31.3251 115.335 31.0401 114.885 30.6501C114.525 30.1701 114.24 29.7201 114.03 29.3001C113.85 28.8801 113.73 28.4001 113.67 27.8601C113.61 27.2901 113.58 26.5701 113.58 25.7001C113.58 25.3401 113.64 24.8001 113.76 24.0801C113.91 23.3601 114.075 22.6101 114.255 21.8301C114.465 21.0201 114.645 20.3001 114.795 19.6701C114.975 19.0401 115.08 18.6351 115.11 18.4551C115.2 18.0651 115.05 17.8401 114.66 17.7801C114.27 17.7201 113.835 17.7051 113.355 17.7351C112.905 17.7351 112.605 17.6901 112.455 17.6001C112.335 17.5701 112.275 17.5251 112.275 17.4651C112.275 17.3751 112.275 17.3301 112.275 17.3301C112.275 17.2101 112.26 17.1351 112.23 17.1051C112.23 17.0451 112.185 16.9401 112.095 16.7901C112.035 16.6701 112.065 16.5051 112.185 16.2951C112.335 16.0551 112.575 15.9051 112.905 15.8451C113.175 15.7851 113.535 15.7401 113.985 15.7101C114.465 15.6501 114.945 15.5451 115.425 15.3951C115.905 15.2151 116.295 14.9451 116.595 14.5851C116.865 13.9251 117.18 13.1901 117.54 12.3801C117.9 11.5701 118.245 10.8501 118.575 10.2201C118.935 9.56012 119.175 9.15512 119.295 9.00512C119.805 8.73512 120.18 8.63012 120.42 8.69012C120.66 8.72012 120.93 8.97512 121.23 9.45512C121.38 9.66512 121.485 9.83012 121.545 9.95012C121.635 10.0701 121.65 10.2501 121.59 10.4901C121.53 10.7301 121.365 11.1051 121.095 11.6151C120.855 12.1251 120.48 12.8601 119.97 13.8201C119.82 14.1201 119.685 14.3901 119.565 14.6301C119.445 14.8401 119.385 14.9451 119.385 14.9451C119.505 14.9751 119.685 14.9901 119.925 14.9901C120.165 14.9901 120.465 14.9751 120.825 14.9451C121.155 14.8851 121.575 14.8401 122.085 14.8101C122.595 14.7501 123 14.7501 123.3 14.8101C123.99 14.8101 124.5 14.9451 124.83 15.2151C125.16 15.4551 125.34 15.8751 125.37 16.4751C125.43 16.8051 125.355 17.0001 125.145 17.0601C124.965 17.1201 124.47 17.1501 123.66 17.1501C123.39 17.1501 122.97 17.1651 122.4 17.1951C121.83 17.2251 121.23 17.2551 120.6 17.2851C120 17.3151 119.475 17.3601 119.025 17.4201C118.605 17.4501 118.395 17.4951 118.395 17.5551C118.305 17.6151 118.155 17.9001 117.945 18.4101C117.765 18.9201 117.57 19.5051 117.36 20.1651C117.18 20.7951 117.015 21.3651 116.865 21.8751C116.655 22.8951 116.49 23.9151 116.37 24.9351C116.28 25.9551 116.265 26.8401 116.325 27.5901C116.385 28.3401 116.55 28.8651 116.82 29.1651C117.09 29.4351 117.615 29.4951 118.395 29.3451C119.175 29.1651 119.805 28.8801 120.285 28.4901C120.825 28.0401 121.26 27.8151 121.59 27.8151C121.95 27.8151 122.145 27.9801 122.175 28.3101C122.235 28.6101 122.07 29.0451 121.68 29.6151C121.32 30.1551 120.87 30.6351 120.33 31.0551C119.79 31.4451 119.22 31.7301 118.62 31.9101C118.05 32.0601 117.51 32.0601 117 31.9101Z" fill="#34C759"/>
<path d="M151.571 30.6951C151.331 30.7251 151.016 30.5901 150.626 30.2901C150.236 29.9901 149.861 29.6451 149.501 29.2551C149.231 28.8351 149.006 28.1451 148.826 27.1851C148.676 26.2251 148.571 25.2351 148.511 24.2151C147.641 25.5351 146.861 26.6151 146.171 27.4551C145.481 28.2951 144.851 28.9551 144.281 29.4351C143.741 29.8851 143.231 30.1851 142.751 30.3351C142.481 30.4251 142.256 30.4251 142.076 30.3351C141.896 30.2151 141.746 30.0501 141.626 29.8401C141.506 29.6301 141.371 29.3001 141.221 28.8501C141.101 28.3701 141.056 27.8751 141.086 27.3651C141.026 26.7351 140.966 26.0151 140.906 25.2051C140.876 24.3951 140.846 23.6001 140.816 22.8201C140.816 22.0101 140.831 21.2901 140.861 20.6601C140.891 20.0301 140.951 19.6101 141.041 19.4001C141.011 19.2801 140.996 19.1601 140.996 19.0401C140.996 18.9201 140.996 18.8601 140.996 18.8601C140.906 18.7101 140.861 18.3801 140.861 17.8701C140.891 17.3301 140.951 16.8051 141.041 16.2951C141.131 15.7851 141.206 15.4701 141.266 15.3501C141.326 15.2301 141.401 15.1401 141.491 15.0801C141.611 15.0201 141.746 14.9751 141.896 14.9451C142.346 15.0351 142.586 15.2151 142.616 15.4851C142.706 15.5451 142.796 15.6351 142.886 15.7551C142.976 15.8451 143.081 15.8751 143.201 15.8451C143.291 15.9051 143.351 16.1751 143.381 16.6551C143.441 17.1351 143.471 17.6901 143.471 18.3201C143.441 18.6201 143.441 18.9051 143.471 19.1751C143.501 19.4451 143.486 19.6851 143.426 19.8951C143.426 20.0451 143.441 20.3751 143.471 20.8851C143.501 21.3651 143.531 21.8601 143.561 22.3701C143.561 22.7601 143.546 23.2851 143.516 23.9451C143.486 24.5751 143.471 25.1001 143.471 25.5201C143.561 26.1201 143.636 26.5101 143.696 26.6901C143.786 26.8401 143.921 26.8551 144.101 26.7351C144.281 26.6751 144.596 26.2851 145.046 25.5651C145.526 24.8451 146.081 23.9451 146.711 22.8651C147.191 22.1451 147.596 21.5301 147.926 21.0201C148.286 20.4801 148.586 20.0601 148.826 19.7601C148.916 19.0401 149.006 18.3951 149.096 17.8251C149.216 17.2551 149.291 16.8501 149.321 16.6101C149.741 16.1901 150.116 15.9501 150.446 15.8901C150.776 15.8001 151.046 15.9651 151.256 16.3851C151.556 16.5051 151.736 16.7001 151.796 16.9701C151.886 17.2101 151.901 17.4951 151.841 17.8251C151.721 18.2451 151.601 18.6501 151.481 19.0401C151.391 19.4301 151.286 19.8351 151.166 20.2551C151.046 20.6751 150.956 21.3501 150.896 22.2801C150.866 23.2101 150.866 24.1401 150.896 25.0701C150.926 25.9701 151.001 26.6451 151.121 27.0951C151.151 27.3651 151.301 27.5001 151.571 27.5001C151.871 27.4701 152.246 27.2601 152.696 26.8701C153.146 26.3901 153.641 25.7901 154.181 25.0701C154.751 24.3201 155.231 23.6301 155.621 23.0001C156.041 22.3701 156.251 21.9801 156.251 21.8301C156.251 21.5901 156.311 21.3351 156.431 21.0651C156.551 20.7651 156.701 20.5401 156.881 20.3901C157.031 20.2101 157.121 20.0301 157.151 19.8501C157.181 19.6401 157.241 19.4301 157.331 19.2201C157.361 19.1601 157.406 19.0701 157.466 18.9501C157.526 18.8301 157.571 18.7101 157.601 18.5901C157.511 18.3801 157.571 18.2001 157.781 18.0501C158.021 17.8701 158.171 17.6901 158.231 17.5101C158.291 17.1201 158.456 16.8951 158.726 16.8351C159.026 16.7451 159.311 16.8051 159.581 17.0151C159.881 17.1951 160.046 17.4801 160.076 17.8701C160.076 18.2301 159.956 18.7551 159.716 19.4451C159.506 20.1351 159.206 20.8701 158.816 21.6501C158.456 22.4301 158.051 23.1351 157.601 23.7651C157.481 24.0051 157.361 24.2451 157.241 24.4851C157.151 24.7251 156.986 25.0401 156.746 25.4301C156.506 25.8201 156.086 26.3901 155.486 27.1401C155.306 27.3801 155.096 27.6351 154.856 27.9051C154.646 28.1451 154.421 28.3701 154.181 28.5801C153.671 29.2401 153.206 29.7501 152.786 30.1101C152.396 30.4701 151.991 30.6651 151.571 30.6951Z" fill="#34C759"/>
<path d="M166.988 31.7301C166.598 31.7601 166.283 31.7301 166.043 31.6401C165.803 31.5201 165.503 31.3551 165.143 31.1451C164.483 30.6351 163.988 30.1251 163.658 29.6151C163.358 29.0751 163.223 28.5501 163.253 28.0401C163.313 27.7701 163.313 27.5301 163.253 27.3201C163.223 27.1101 163.208 27.0051 163.208 27.0051C163.028 26.8551 162.968 26.7651 163.028 26.7351C163.088 26.6751 163.133 26.5851 163.163 26.4651C163.403 26.4051 163.433 26.2401 163.253 25.9701C163.163 25.7301 163.208 25.1901 163.388 24.3501C163.598 23.4801 163.868 22.6701 164.198 21.9201C164.348 21.5901 164.558 21.1551 164.828 20.6151C165.128 20.0751 165.458 19.5351 165.818 18.9951C166.178 18.4251 166.508 17.9751 166.808 17.6451C167.468 16.8951 168.053 16.3401 168.563 15.9801C169.103 15.5901 169.703 15.2751 170.363 15.0351C170.963 14.7951 171.398 14.6601 171.668 14.6301C171.938 14.6001 172.313 14.7801 172.793 15.1701C173.513 15.3801 174.053 15.6801 174.413 16.0701C174.803 16.4301 175.103 17.0001 175.313 17.7801C175.553 18.6501 175.628 19.6851 175.538 20.8851C175.478 22.0551 174.968 23.5701 174.008 25.4301C173.438 26.6001 172.868 27.4851 172.298 28.0851C171.758 28.6851 171.098 29.3151 170.318 29.9751C169.748 30.4551 169.223 30.8301 168.743 31.1001C168.263 31.3701 167.678 31.5801 166.988 31.7301ZM170.588 26.3751C171.188 25.4751 171.653 24.6501 171.983 23.9001C172.343 23.1201 172.628 22.1451 172.838 20.9751C172.898 20.6451 172.913 20.2401 172.883 19.7601C172.853 19.2501 172.778 18.7851 172.658 18.3651C172.568 17.9451 172.433 17.7201 172.253 17.6901C171.863 17.5401 171.428 17.5401 170.948 17.6901C170.468 17.8101 169.943 18.1701 169.373 18.7701C168.863 19.3701 168.398 20.0451 167.978 20.7951C167.588 21.5451 167.228 22.3701 166.898 23.2701C166.568 24.1701 166.253 25.1301 165.953 26.1501C165.653 27.2901 165.668 28.1601 165.998 28.7601C166.358 29.3601 166.943 29.5101 167.753 29.2101C168.563 28.8801 169.508 27.9351 170.588 26.3751Z" fill="#34C759"/>
<path d="M179.837 30.4251C179.567 30.2151 179.372 30.0051 179.252 29.7951C179.162 29.5851 179.162 29.1801 179.252 28.5801C179.342 27.7401 179.462 27.0051 179.612 26.3751C179.762 25.7151 179.942 24.9651 180.152 24.1251C180.212 23.7651 180.377 23.1501 180.647 22.2801C180.947 21.4101 181.307 20.4651 181.727 19.4451C182.147 18.4251 182.567 17.4651 182.987 16.5651C183.407 15.6351 183.767 14.9451 184.067 14.4951C184.307 14.3151 184.592 14.2401 184.922 14.2701C185.282 14.3001 185.582 14.4351 185.822 14.6751C186.152 14.9451 186.197 15.4251 185.957 16.1151C185.747 16.7751 185.297 17.8251 184.607 19.2651C184.247 20.0751 183.977 20.6901 183.797 21.1101C183.617 21.5001 183.542 21.7401 183.572 21.8301C183.602 21.8901 183.737 21.8451 183.977 21.6951C184.157 21.3651 184.487 20.9901 184.967 20.5701C185.447 20.1201 185.957 19.6851 186.497 19.2651C187.037 18.8451 187.547 18.4701 188.027 18.1401C188.507 17.8101 188.837 17.6001 189.017 17.5101C189.257 17.3601 189.527 17.2401 189.827 17.1501C190.157 17.0301 190.382 16.9401 190.502 16.8801C191.192 16.5501 191.897 16.4301 192.617 16.5201C193.337 16.6101 193.787 16.8801 193.967 17.3301C193.997 17.5701 194.087 17.7501 194.237 17.8701C194.417 17.9901 194.507 18.0501 194.507 18.0501C194.627 18.0501 194.687 18.0951 194.687 18.1851C194.717 18.2751 194.732 18.3201 194.732 18.3201C194.732 18.5301 194.567 18.6651 194.237 18.7251C193.937 18.7551 193.547 18.7851 193.067 18.8151C192.677 18.8451 192.332 18.9201 192.032 19.0401C191.732 19.1601 191.372 19.3101 190.952 19.4901C189.812 20.1501 188.717 20.7951 187.667 21.4251C186.647 22.0551 185.657 22.8951 184.697 23.9451C184.487 24.1851 184.277 24.4701 184.067 24.8001C183.857 25.1301 183.632 25.4901 183.392 25.8801C183.242 26.0301 183.092 26.3601 182.942 26.8701C182.792 27.3801 182.657 27.8751 182.537 28.3551C182.447 28.8051 182.402 29.0751 182.402 29.1651C182.402 29.1651 182.357 29.3151 182.267 29.6151C182.177 29.8851 182.027 30.1551 181.817 30.4251C181.457 30.9051 181.157 31.1451 180.917 31.1451C180.677 31.1451 180.317 30.9051 179.837 30.4251Z" fill="#34C759"/>
<path d="M196.188 31.0101C195.888 30.8001 195.663 30.6051 195.513 30.4251C195.363 30.2451 195.303 29.9901 195.333 29.6601C195.393 29.2101 195.483 28.7451 195.603 28.2651C195.723 27.7551 195.873 27.2601 196.053 26.7801C196.143 26.2401 196.248 25.7001 196.368 25.1601C196.518 24.6201 196.758 24.1101 197.088 23.6301C197.478 22.5201 197.883 21.4251 198.303 20.3451C198.723 19.2351 199.083 18.0801 199.383 16.8801C199.833 15.8001 200.238 14.8401 200.598 14.0001C200.988 13.1601 201.453 12.0801 201.993 10.7601C202.293 10.0701 202.548 9.30512 202.758 8.46512C202.998 7.59512 203.358 6.83012 203.838 6.17012C204.048 5.90012 204.198 5.67512 204.288 5.49512C204.408 5.28512 204.528 5.09012 204.648 4.91012C204.708 4.73012 204.903 4.67012 205.233 4.73012C205.593 4.79012 205.848 4.92512 205.998 5.13512C206.148 5.10512 206.328 5.30012 206.538 5.72012C206.748 6.14012 206.823 6.47012 206.763 6.71012C206.763 7.04012 206.643 7.40012 206.403 7.79012C206.283 7.91012 206.163 8.09012 206.043 8.33012C205.923 8.54012 205.743 8.82512 205.503 9.18512C205.383 9.57512 205.263 9.96512 205.143 10.3551C205.023 10.7451 204.888 11.1051 204.738 11.4351C204.588 11.7651 204.423 12.0951 204.243 12.4251C204.063 12.7551 203.943 13.0251 203.883 13.2351C203.613 13.9251 203.313 14.6001 202.983 15.2601C202.683 15.8901 202.413 16.5651 202.173 17.2851C201.933 17.9751 201.678 18.7101 201.408 19.4901C201.168 20.2401 200.838 20.9601 200.418 21.6501C200.208 21.9501 200.043 22.3551 199.923 22.8651C199.803 23.3751 199.683 23.8701 199.563 24.3501C199.353 24.8901 199.158 25.3851 198.978 25.8351C198.828 26.2851 198.753 26.5701 198.753 26.6901C198.543 27.3501 198.378 28.0101 198.258 28.6701C198.138 29.3001 197.943 29.8551 197.673 30.3351C197.643 30.7851 197.508 31.0851 197.268 31.2351C197.058 31.3851 196.698 31.3101 196.188 31.0101ZM206.943 31.7301C206.463 31.6701 206.103 31.5801 205.863 31.4601C205.623 31.3101 205.173 30.9951 204.513 30.5151C204.153 30.1551 203.658 29.6001 203.028 28.8501C202.398 28.1001 201.768 27.3051 201.138 26.4651C200.508 25.5951 199.983 24.8601 199.563 24.2601L201.408 21.7851C201.798 22.2651 202.113 22.7151 202.353 23.1351C202.593 23.5551 202.788 23.8401 202.938 23.9901C203.628 25.0101 204.168 25.8351 204.558 26.4651C204.978 27.0951 205.353 27.6051 205.683 27.9951C206.013 28.3851 206.358 28.7301 206.718 29.0301C207.108 29.3301 207.588 29.6451 208.158 29.9751C208.248 30.0351 208.338 30.1251 208.428 30.2451C208.518 30.3651 208.548 30.5451 208.518 30.7851C208.398 31.1151 208.263 31.3251 208.113 31.4151C207.993 31.4751 207.603 31.5801 206.943 31.7301ZM199.428 23.7651C199.248 23.2551 199.308 22.7451 199.608 22.2351C199.938 21.6951 200.298 21.3201 200.688 21.1101C200.808 20.9001 200.928 20.7651 201.048 20.7051C201.198 20.6151 201.288 20.5101 201.318 20.3901C201.378 20.2701 201.528 20.1051 201.768 19.8951C202.038 19.6851 202.278 19.4901 202.488 19.3101C202.968 19.0101 203.508 18.6501 204.108 18.2301C204.738 17.7801 205.338 17.3301 205.908 16.8801C206.478 16.4301 206.958 16.0401 207.348 15.7101C207.768 15.3801 208.023 15.1701 208.113 15.0801C208.203 14.9601 208.323 14.8851 208.473 14.8551C208.653 14.7951 208.878 14.8251 209.148 14.9451C209.508 15.0351 209.748 15.1851 209.868 15.3951C209.988 15.5751 210.048 15.9351 210.048 16.4751C210.138 16.8051 210.003 17.1651 209.643 17.5551C209.313 17.9151 208.803 18.3201 208.113 18.7701C207.873 18.9201 207.543 19.1451 207.123 19.4451C206.733 19.7451 206.388 20.0301 206.088 20.3001C205.878 20.4201 205.563 20.6301 205.143 20.9301C204.753 21.2001 204.408 21.4701 204.108 21.7401C203.868 21.8901 203.553 22.1601 203.163 22.5501C202.773 22.9101 202.383 23.1801 201.993 23.3601C201.033 24.2601 200.403 24.7401 200.103 24.8001C199.803 24.8601 199.578 24.5151 199.428 23.7651Z" fill="#34C759"/>
<path d="M217.123 31.3701C215.623 31.3701 214.528 30.8301 213.838 29.7501C213.628 29.4501 213.523 29.1501 213.523 28.8501C213.553 28.5201 213.643 28.2951 213.793 28.1751C213.973 28.0551 214.183 28.1601 214.423 28.4901C214.843 28.7301 215.443 28.8501 216.223 28.8501C216.613 28.8501 217.018 28.8201 217.438 28.7601C217.858 28.6701 218.278 28.5501 218.698 28.4001C219.148 28.1901 219.448 28.0101 219.598 27.8601C219.748 27.6801 219.718 27.5301 219.508 27.4101H219.553C218.773 27.2001 217.978 26.8701 217.168 26.4201C216.388 25.9401 215.713 25.4301 215.143 24.8901C214.573 24.3201 214.243 23.8101 214.153 23.3601C213.913 22.4301 213.973 21.4851 214.333 20.5251C214.693 19.5351 215.203 18.6651 215.863 17.9151C216.103 17.7651 216.403 17.5851 216.763 17.3751C217.123 17.1351 217.408 17.0001 217.618 16.9701V17.0151C218.188 16.4151 218.878 15.9351 219.688 15.5751C220.528 15.2151 221.413 14.8851 222.343 14.5851L223.018 14.4951C223.378 14.4351 223.678 14.4051 223.918 14.4051C223.888 14.4051 223.948 14.4351 224.098 14.4951C224.248 14.5251 224.383 14.5551 224.503 14.5851C224.683 14.6751 224.833 14.7201 224.953 14.7201C225.343 14.7801 225.703 14.9601 226.033 15.2601C226.363 15.5601 226.618 15.9201 226.798 16.3401C227.008 16.7301 227.083 17.1051 227.023 17.4651C226.963 18.0351 226.783 18.5451 226.483 18.9951C226.213 19.4451 225.883 19.7001 225.493 19.7601C225.553 19.7301 225.508 19.6851 225.358 19.6251C225.238 19.5351 225.103 19.4451 224.953 19.3551L224.818 19.4451C224.818 19.4451 224.803 19.4151 224.773 19.3551C224.773 19.2651 224.743 19.1601 224.683 19.0401C224.593 18.8601 224.548 18.6651 224.548 18.4551C224.548 18.2151 224.563 17.9601 224.593 17.6901C224.653 17.3601 224.653 17.1651 224.593 17.1051C224.563 17.0451 224.368 17.0001 224.008 16.9701C223.588 16.8801 222.973 16.9551 222.163 17.1951C221.383 17.4351 220.723 17.7651 220.183 18.1851C219.523 18.6051 218.968 19.0101 218.518 19.4001C218.068 19.7601 217.708 20.1201 217.438 20.4801C217.168 20.8101 216.928 21.2001 216.718 21.6501C216.568 21.8601 216.433 22.0701 216.313 22.2801C216.223 22.4601 216.178 22.6251 216.178 22.7751C216.178 23.1051 216.418 23.4501 216.898 23.8101C217.408 24.1401 218.158 24.5301 219.148 24.9801C219.928 25.3101 220.588 25.6701 221.128 26.0601C221.668 26.4501 222.043 26.9001 222.253 27.4101C222.313 27.5301 222.328 27.6801 222.298 27.8601C222.298 28.0101 222.268 28.1151 222.208 28.1751C222.268 28.2351 222.298 28.2801 222.298 28.3101V28.2651C222.538 28.6251 222.538 29.0001 222.298 29.3901C222.088 29.7801 221.713 30.1251 221.173 30.4251C220.663 30.6951 220.033 30.9051 219.283 31.0551H219.328C218.938 31.1751 218.548 31.2651 218.158 31.3251C217.798 31.3551 217.453 31.3701 217.123 31.3701Z" fill="#34C759"/>
<path fill-rule="evenodd" clip-rule="evenodd" d="M38.6025 103.379C49.1013 114.363 62.0167 124.106 76.7562 127.756C82.1191 129.085 87.4629 129.135 92.9334 129.236C93.317 129.244 93.6357 128.937 93.6439 128.552C93.6504 128.166 93.3437 127.847 92.9579 127.841C87.5932 127.741 82.3511 127.704 77.0919 126.401C62.5616 122.803 49.8524 113.157 39.5189 102.319L39.6729 102.147C41.349 100.279 41.7702 96.902 41.2539 93.0492C40.5145 87.5264 37.9242 81.0141 35.0175 76.9419C33.7109 75.1124 32.3264 73.7711 31.0238 73.1646C30.0084 72.6911 29.0241 72.6368 28.119 73.0442C26.1908 73.9137 25.5019 76.2339 25.8263 79.2857C26.503 85.6685 31.404 95.3643 34.5868 98.9926C35.5811 100.125 36.6003 101.252 37.645 102.366C37.3591 102.703 37.0778 103.031 36.7898 103.338C35.9668 104.21 35.0735 104.917 33.7117 105.16C31.5889 105.536 29.3615 105.002 27.2167 104.038C23.8706 102.531 20.7307 99.9623 18.4746 97.8985C5.91072 86.4041 2.38116 72.3455 2.25051 59.3308C2.12085 46.187 5.44244 34.0924 6.53711 26.6796C6.59417 26.2984 6.32962 25.945 5.94844 25.8879C5.56727 25.8309 5.21207 26.0948 5.15676 26.4766C4.05445 33.9371 0.723812 46.1137 0.856127 59.3452C0.987454 72.7056 4.63525 87.1285 17.5312 98.9286C19.8811 101.079 23.1585 103.741 26.643 105.311C29.0557 106.396 31.5676 106.957 33.9566 106.534C36.1002 106.152 37.3153 104.872 38.6025 103.379ZM38.5578 101.299L38.6353 101.214C40.1007 99.5822 40.322 96.6038 39.87 93.2349C39.1596 87.928 36.6753 81.6679 33.8801 77.7532C32.9225 76.4105 31.9342 75.3492 30.9655 74.7248C30.1659 74.2107 29.3962 73.9996 28.6935 74.3177C28.0284 74.6151 27.6182 75.1876 27.3877 75.9338C27.1156 76.8093 27.0833 77.9049 27.2135 79.1377C27.8644 85.271 32.5773 94.5858 35.636 98.0718C36.5867 99.1538 37.5601 100.231 38.5578 101.299Z" fill="#34C759"/>
<path fill-rule="evenodd" clip-rule="evenodd" d="M95.2813 127.722C95.1318 127.989 94.8223 128.285 94.4856 128.599C93.6846 129.349 92.6492 130.089 92.1754 130.458C91.8711 130.695 91.8187 131.134 92.0548 131.438C92.2927 131.742 92.7308 131.796 93.0352 131.559C93.615 131.106 94.9929 130.118 95.8551 129.208C96.3172 128.72 96.6323 128.233 96.7241 127.839C96.8816 127.17 96.4968 126.597 95.4658 126.292C94.2459 125.932 91.8031 125.815 90.156 124.48C89.8577 124.238 89.416 124.285 89.1751 124.583C88.9318 124.883 88.9776 125.323 89.2776 125.566C90.8486 126.838 93.0479 127.177 94.5009 127.491C94.7769 127.55 95.0941 127.656 95.2813 127.722Z" fill="#34C759"/>
</svg>
