<svg width="114" height="24" viewBox="0 0 114 24" fill="none" xmlns="http://www.w3.org/2000/svg">
<rect y="0.463867" width="22.7431" height="22.7431" rx="5.68579" fill="#101010"/>
<path d="M9.93313 11.2261L8.42909 12.0857L5.93079 7.71465L7.43482 6.85501L9.93313 11.2261Z" fill="white"/>
<path d="M12.9785 10.289L11.4745 11.1487L8.97615 6.77761L10.4802 5.91797L12.9785 10.289Z" fill="white"/>
<path d="M15.4222 6.4868L17.036 6.41682L17.0506 6.7556C17.1617 9.31622 15.8933 12.2673 13.5709 14.6219C12.3362 15.8736 10.9388 16.8215 9.52261 17.4283L9.21091 17.5618L8.5748 16.0771L8.8865 15.9436C10.1003 15.4235 11.3254 14.5984 12.421 13.4876C14.5077 11.372 15.5241 8.83597 15.4369 6.82558L15.4222 6.4868Z" fill="white"/>
<path d="M30.298 22.8828V10.3411H28.4289V6.63003H32.2754V9.20339H33.5215C34.0271 8.2824 34.7314 7.57811 35.6343 7.09053C36.5553 6.58489 37.6659 6.33206 38.9662 6.33206C40.2483 6.33206 41.3409 6.57586 42.2438 7.06344C43.1648 7.55102 43.9052 8.2824 44.465 9.25757H44.5463C45.7382 7.30723 47.5982 6.33206 50.1264 6.33206C52.1671 6.33206 53.7743 6.928 54.9481 8.11987C56.1219 9.29369 56.7088 10.9009 56.7088 12.9415V22.8828H53.0249V13.5917C53.0249 10.919 51.7427 9.58263 49.1784 9.58263C46.614 9.58263 45.3319 10.919 45.3319 13.5917V22.8828H41.6479V13.5917C41.6479 10.919 40.3567 9.58263 37.7743 9.58263C36.5282 9.58263 35.5802 9.92574 34.9301 10.612C34.298 11.2801 33.982 12.2734 33.982 13.5917V22.8828H30.298Z" fill="#101010"/>
<path d="M65.8951 23.2079C64.1795 23.2079 62.6806 22.8648 61.3984 22.1786C60.1343 21.4743 59.1592 20.481 58.4729 19.1989C57.7867 17.9167 57.4436 16.4178 57.4436 14.7023C57.4436 12.9867 57.7777 11.5059 58.4458 10.2598C59.1321 8.99572 60.0982 8.02055 61.3443 7.33432C62.5903 6.64809 64.0621 6.30498 65.7596 6.30498C67.3849 6.30498 68.7844 6.63003 69.9583 7.28014C71.1321 7.9122 72.035 8.82416 72.6671 10.016C73.3172 11.1898 73.6422 12.5894 73.6422 14.2147V15.5691H60.965C61.1095 17.0499 61.6061 18.1966 62.4549 19.0093C63.3036 19.8038 64.4413 20.2011 65.868 20.2011C66.9154 20.2011 67.7732 20.0025 68.4413 19.6052C69.1095 19.2079 69.57 18.612 69.8228 17.8174H73.561C73.1637 19.5149 72.2878 20.8422 70.9334 21.7993C69.5971 22.7384 67.9176 23.2079 65.8951 23.2079ZM61.0734 12.9957H70.1208C69.9763 11.8038 69.5248 10.8919 68.7664 10.2598C68.0079 9.60971 67.0057 9.28466 65.7596 9.28466C64.5136 9.28466 63.4842 9.60971 62.6716 10.2598C61.8589 10.8919 61.3262 11.8038 61.0734 12.9957Z" fill="#101010"/>
<path d="M75.6654 22.8828V10.3411H73.7963V6.63003H77.6428V9.74516H78.7805C79.2139 8.67969 79.9001 7.86705 80.8392 7.30723C81.7963 6.74741 82.8888 6.4675 84.1168 6.4675H85.4712V9.6368H83.9543C82.4193 9.6368 81.2545 10.0792 80.4599 10.9641C79.6834 11.849 79.2952 13.0318 79.2952 14.5126V22.8828H75.6654Z" fill="#101010"/>
<path d="M85.9834 22.8828V0.128906H89.6673V22.8828H85.9834Z" fill="#101010"/>
<path d="M91.6757 22.8828V6.63003H95.3596V22.8828H91.6757Z" fill="#101010"/>
<path d="M98.1535 22.8828V10.3411H96.2844V6.63003H100.131V9.20339H101.269C101.847 8.2824 102.614 7.57811 103.571 7.09053C104.546 6.58489 105.72 6.33206 107.093 6.33206C109.26 6.33206 110.948 6.94606 112.158 8.17405C113.386 9.38398 114 11.0093 114 13.0499V22.8828H110.316V13.7C110.316 12.3637 109.955 11.3433 109.233 10.6391C108.528 9.93477 107.481 9.58263 106.09 9.58263C104.7 9.58263 103.643 9.93477 102.921 10.6391C102.199 11.3433 101.837 12.3637 101.837 13.7V22.8828H98.1535Z" fill="#101010"/>
</svg>
