<svg width="283" height="81" viewBox="0 0 283 81" fill="none" xmlns="http://www.w3.org/2000/svg">
<path fill-rule="evenodd" clip-rule="evenodd" d="M13.9793 58.0546C17.4374 65.1541 22.2881 72.0218 29.0066 76.1621C31.4509 77.6689 34.0883 78.5399 36.7803 79.4559C36.9689 79.5204 37.1752 79.4191 37.2403 79.2296C37.3046 79.0396 37.2033 78.8333 37.0133 78.7691C34.3734 77.8704 31.7844 77.0222 29.3873 75.5446C22.7642 71.463 18 64.6761 14.6008 57.675L14.7043 57.614C15.8296 56.955 16.5728 55.3498 16.9272 53.3608C17.4356 50.5099 17.1844 46.8761 16.3903 44.4001C16.0332 43.2876 15.5601 42.4045 15.0113 41.898C14.5837 41.5029 14.105 41.3202 13.5925 41.3785C12.5003 41.5036 11.792 42.5431 11.4694 44.1052C10.7939 47.3719 11.6849 52.9474 12.686 55.2474C12.9988 55.9655 13.3249 56.6848 13.6656 57.4017C13.4708 57.523 13.2796 57.641 13.0885 57.7473C12.543 58.0486 11.989 58.2569 11.2764 58.1616C10.166 58.0119 9.14785 57.3951 8.23885 56.5781C6.8211 55.3021 5.67344 53.5337 4.88339 52.1549C0.483872 44.4758 0.962467 36.9578 2.95831 30.4946C4.97507 23.9677 8.53417 18.5065 10.2496 15.0104C10.3382 14.8308 10.2632 14.6139 10.0836 14.5253C9.90393 14.4367 9.68631 14.5112 9.59849 14.6914C7.87168 18.2099 4.29512 23.7102 2.26579 30.281C0.215538 36.9154 -0.262194 44.6325 4.25329 52.5154C5.07616 53.9517 6.27694 55.7887 7.75337 57.1172C8.77586 58.0365 9.93039 58.7121 11.1801 58.8805C12.3016 59.0312 13.1058 58.5897 13.9793 58.0546ZM14.2864 57.018L14.3383 56.9882C15.3221 56.4122 15.9032 54.9729 16.2128 53.2337C16.7013 50.4942 16.4627 47.002 15.6988 44.6217C15.4374 43.8054 15.1161 43.1236 14.7355 42.6611C14.4211 42.28 14.0734 42.0537 13.6752 42.0999C13.2989 42.1418 13.0053 42.3603 12.773 42.6931C12.4997 43.0835 12.3103 43.6207 12.1795 44.2516C11.5307 47.3907 12.3889 52.7478 13.3511 54.9577C13.6504 55.6438 13.9617 56.3314 14.2864 57.018Z" fill="#34C759"/>
<path fill-rule="evenodd" clip-rule="evenodd" d="M38.1821 79.0784C38.066 79.1866 37.8658 79.2842 37.6494 79.3865C37.1342 79.6308 36.5045 79.8332 36.2116 79.9406C36.0233 80.0102 35.9279 80.219 35.9967 80.4068C36.0663 80.5951 36.2746 80.6913 36.4629 80.6217C36.8216 80.4896 37.6602 80.2184 38.2309 79.9046C38.537 79.7361 38.7701 79.5448 38.8778 79.3647C39.0617 79.0584 38.9621 78.7135 38.5 78.3994C37.9531 78.0281 36.7623 77.5837 36.1583 76.662C36.0491 76.4947 35.823 76.448 35.6564 76.5578C35.4885 76.6678 35.4416 76.8926 35.5516 77.0605C36.1279 77.9388 37.1629 78.4549 37.8325 78.84C37.9597 78.9134 38.0999 79.0161 38.1821 79.0784Z" fill="#34C759"/>
<path d="M17.7138 21.3198C17.5538 21.3198 17.3738 21.1898 17.1738 20.9298C16.9738 20.6698 16.8838 20.4198 16.9038 20.1798C16.9238 19.8598 17.0138 19.3998 17.1738 18.7998C17.3338 18.1998 17.5138 17.5898 17.7138 16.9698C17.9138 16.3498 18.0938 15.8598 18.2538 15.4998C18.3338 15.1798 18.4038 14.8998 18.4638 14.6598C18.5438 14.3998 18.5938 14.2298 18.6138 14.1498C18.6738 14.0698 18.7638 13.8598 18.8838 13.5198C19.0238 13.1798 19.1338 12.8498 19.2138 12.5298C19.2538 12.3698 19.3338 12.0698 19.4538 11.6298C19.5938 11.1698 19.7538 10.6398 19.9338 10.0398C20.1338 9.4398 20.3238 8.8498 20.5038 8.2698C20.7038 7.6898 20.8738 7.1798 21.0138 6.7398C21.1538 6.2998 21.2438 6.0098 21.2838 5.8698C21.4438 5.6298 21.5638 5.3998 21.6438 5.1798C21.7238 4.95981 21.7738 4.80981 21.7938 4.7298C21.9138 4.6498 21.9838 4.5498 22.0038 4.4298C22.0238 4.2898 22.0338 4.1798 22.0338 4.0998C22.0338 3.9998 22.0638 3.9198 22.1238 3.8598C22.2038 3.7998 22.2438 3.7298 22.2438 3.6498C22.3238 3.5898 22.3738 3.4998 22.3938 3.3798C22.4138 3.2398 22.4738 3.1198 22.5738 3.0198L22.7238 2.50981L24.4938 2.4798C24.4538 2.7198 24.3938 3.0198 24.3138 3.3798C24.2338 3.71981 24.0438 4.17981 23.7438 4.7598C23.6438 5.1598 23.5238 5.5198 23.3838 5.8398C23.2638 6.1598 23.2138 6.3698 23.2338 6.4698C23.1938 6.5098 23.1038 6.7098 22.9638 7.0698C22.8438 7.4298 22.6938 7.8698 22.5138 8.3898C22.3538 8.9098 22.1838 9.4298 22.0038 9.94981C21.8438 10.4698 21.6938 10.9298 21.5538 11.3298C21.4338 11.7098 21.3538 11.9498 21.3138 12.0498C21.1538 12.3698 20.9738 12.8398 20.7738 13.4598C20.5738 14.0798 20.2738 14.9198 19.8738 15.9798C19.7138 16.2998 19.5138 16.7798 19.2738 17.4198C19.0538 18.0598 18.8738 18.6398 18.7338 19.1598C18.5138 19.9398 18.3538 20.4798 18.2538 20.7798C18.1738 21.0998 18.1038 21.2698 18.0438 21.2898C17.9838 21.3298 17.8738 21.3398 17.7138 21.3198ZM17.9538 3.4398C17.3938 3.45981 16.9738 3.42981 16.6938 3.34981C16.4338 3.2698 16.3438 3.0698 16.4238 2.7498C16.4838 2.5098 16.6138 2.3298 16.8138 2.2098C17.0138 2.0898 17.3038 1.9998 17.6838 1.9398C17.9038 1.8998 18.1838 1.8498 18.5238 1.7898C18.8838 1.7298 19.2238 1.6698 19.5438 1.6098C20.2038 1.5298 20.7438 1.4598 21.1638 1.39981C21.6038 1.3398 22.0538 1.2898 22.5138 1.24981C22.9738 1.2098 23.5538 1.1698 24.2538 1.12981C24.8338 1.0898 25.3238 1.0598 25.7238 1.0398C26.1438 0.999805 26.3538 0.979805 26.3538 0.979805C26.4138 0.979805 26.6238 0.999805 26.9838 1.0398C27.3438 1.0798 27.7338 1.1298 28.1538 1.1898C28.5738 1.2498 28.8838 1.31981 29.0838 1.39981C29.5438 1.49981 29.8738 1.63981 30.0738 1.81981C30.2938 1.99981 30.4438 2.2598 30.5238 2.5998C30.5838 2.8398 30.5838 2.9898 30.5238 3.04981C30.4638 3.0898 30.3538 3.1498 30.1938 3.2298C29.7338 3.3698 29.3938 3.4398 29.1738 3.4398C28.9538 3.4398 28.7038 3.3898 28.4238 3.2898C28.3238 3.1898 28.2038 3.0998 28.0638 3.0198C27.9438 2.9398 27.7238 2.8798 27.4038 2.8398C27.1038 2.7798 26.6238 2.7298 25.9638 2.6898C25.4038 2.7498 24.9138 2.77981 24.4938 2.77981C24.0738 2.77981 23.8638 2.82981 23.8638 2.92981L22.0938 3.0198L20.6238 3.1698C20.4238 3.1898 20.1438 3.21981 19.7838 3.2598C19.4238 3.2798 19.0738 3.3098 18.7338 3.34981C18.3938 3.3698 18.1338 3.3998 17.9538 3.4398Z" fill="#34C759"/>
<path d="M26.6217 18.9498C26.4417 18.8098 26.3117 18.6698 26.2317 18.5298C26.1717 18.3898 26.1717 18.1198 26.2317 17.7198C26.2917 17.1598 26.3717 16.6698 26.4717 16.2498C26.5717 15.8098 26.6917 15.3098 26.8317 14.7498C26.8717 14.5098 26.9817 14.0998 27.1617 13.5198C27.3617 12.9398 27.6017 12.3098 27.8817 11.6298C28.1617 10.9498 28.4417 10.3098 28.7217 9.7098C29.0017 9.0898 29.2417 8.6298 29.4417 8.3298C29.6017 8.2098 29.7917 8.15981 30.0117 8.1798C30.2517 8.19981 30.4517 8.2898 30.6117 8.4498C30.8317 8.6298 30.8617 8.94981 30.7017 9.40981C30.5617 9.8498 30.2617 10.5498 29.8017 11.5098C29.5617 12.0498 29.3817 12.4598 29.2617 12.7398C29.1417 12.9998 29.0917 13.1598 29.1117 13.2198C29.1317 13.2598 29.2217 13.2298 29.3817 13.1298C29.5017 12.9098 29.7217 12.6598 30.0417 12.3798C30.3617 12.0798 30.7017 11.7898 31.0617 11.5098C31.4217 11.2298 31.7617 10.9798 32.0817 10.7598C32.4017 10.5398 32.6217 10.3998 32.7417 10.3398C32.9017 10.2398 33.0817 10.1598 33.2817 10.0998C33.5017 10.0198 33.6517 9.9598 33.7317 9.9198C34.1917 9.69981 34.6617 9.6198 35.1417 9.6798C35.6217 9.7398 35.9217 9.9198 36.0417 10.2198C36.0617 10.3798 36.1217 10.4998 36.2217 10.5798C36.3417 10.6598 36.4017 10.6998 36.4017 10.6998C36.4817 10.6998 36.5217 10.7298 36.5217 10.7898C36.5417 10.8498 36.5517 10.8798 36.5517 10.8798C36.5517 11.0198 36.4417 11.1098 36.2217 11.1498C36.0217 11.1698 35.7617 11.1898 35.4417 11.2098C35.1817 11.2298 34.9517 11.2798 34.7517 11.3598C34.5517 11.4398 34.3117 11.5398 34.0317 11.6598C33.2717 12.0998 32.5417 12.5298 31.8417 12.9498C31.1617 13.3698 30.5017 13.9298 29.8617 14.6298C29.7217 14.7898 29.5817 14.9798 29.4417 15.1998C29.3017 15.4198 29.1517 15.6598 28.9917 15.9198C28.8917 16.0198 28.7917 16.2398 28.6917 16.5798C28.5917 16.9198 28.5017 17.2498 28.4217 17.5698C28.3617 17.8698 28.3317 18.0498 28.3317 18.1098C28.3317 18.1098 28.3017 18.2098 28.2417 18.4098C28.1817 18.5898 28.0817 18.7698 27.9417 18.9498C27.7017 19.2698 27.5017 19.4298 27.3417 19.4298C27.1817 19.4298 26.9417 19.2698 26.6217 18.9498Z" fill="#34C759"/>
<path d="M36.8322 27.2298C36.3922 27.3098 36.0922 27.3198 35.9322 27.2598C35.7722 27.1998 35.5522 27.0998 35.2722 26.9598C35.0522 26.7998 34.8822 26.6798 34.7622 26.5998C34.6422 26.5198 34.5822 26.4398 34.5822 26.3598C34.5822 26.2998 34.6022 26.2298 34.6422 26.1498C34.6822 26.0898 34.7522 26.0298 34.8522 25.9698C34.9722 25.9298 35.1322 25.9098 35.3322 25.9098C35.4722 25.9898 35.7022 26.0298 36.0222 26.0298C36.3622 26.0298 36.5722 25.9898 36.6522 25.9098C36.6522 25.9098 36.7422 25.8498 36.9222 25.7298C37.1222 25.6298 37.3822 25.5498 37.7022 25.4898C38.3222 25.1898 38.8722 24.8098 39.3522 24.3498C39.8322 23.8898 40.2922 23.2898 40.7322 22.5498C40.9122 22.2698 41.1022 21.9398 41.3022 21.5598C41.5022 21.1998 41.6422 20.8398 41.7222 20.4798C41.8822 20.0798 42.0622 19.5398 42.2622 18.8598C42.4822 18.1798 42.6722 17.5098 42.8322 16.8498C42.9922 16.1698 43.0822 15.6598 43.1022 15.3198C43.2222 14.1998 43.4122 13.1698 43.6722 12.2298C43.9522 11.2698 44.1922 10.1998 44.3922 9.0198C44.5122 8.7398 44.6022 8.5798 44.6622 8.5398C44.7222 8.4798 44.8522 8.4498 45.0522 8.4498C45.2722 8.4498 45.4322 8.4698 45.5322 8.5098C45.6522 8.5298 45.7822 8.6498 45.9222 8.8698C46.1222 9.2498 46.1922 9.6998 46.1322 10.2198C46.0922 10.7198 45.9422 11.1598 45.6822 11.5398C45.4822 11.8198 45.3022 12.2598 45.1422 12.8598C45.0022 13.4398 44.8622 14.1698 44.7222 15.0498C44.6222 15.4898 44.5122 16.0098 44.3922 16.6098C44.2922 17.1898 44.1822 17.8398 44.0622 18.5598C43.9822 18.7598 43.8722 19.0698 43.7322 19.4898C43.5922 19.8898 43.5022 20.2098 43.4622 20.4498C43.4422 20.5298 43.3822 20.6898 43.2822 20.9298C43.1822 21.1698 43.0822 21.3998 42.9822 21.6198C42.8822 21.8598 42.8122 22.0198 42.7722 22.0998C41.9922 23.7198 41.1022 24.9598 40.1022 25.8198C39.1022 26.6798 38.0122 27.1498 36.8322 27.2298ZM39.1122 18.5298C38.8922 18.5298 38.6622 18.4098 38.4222 18.1698C38.2022 17.9298 38.0522 17.7398 37.9722 17.5998C37.8922 17.3998 37.7922 17.2098 37.6722 17.0298C37.5522 16.8498 37.4622 16.6298 37.4022 16.3698C37.3622 16.1098 37.3822 15.7898 37.4622 15.4098C37.5422 15.1498 37.6522 14.7798 37.7922 14.2998C37.9522 13.7998 38.1222 13.2598 38.3022 12.6798C38.5022 12.0998 38.7022 11.5298 38.9022 10.9698C39.1222 10.3898 39.3222 9.8798 39.5022 9.4398C39.6822 8.9798 39.8422 8.6498 39.9822 8.4498C40.1022 8.2898 40.2322 8.18981 40.3722 8.14981C40.5322 8.1098 40.6922 8.12981 40.8522 8.20981C41.0122 8.26981 41.1522 8.39981 41.2722 8.5998C41.4922 8.8798 41.5822 9.1198 41.5422 9.31981C41.5022 9.5198 41.3222 9.9098 41.0022 10.4898C40.9222 10.7098 40.8222 10.9498 40.7022 11.2098C40.5822 11.4498 40.5222 11.6098 40.5222 11.6898C40.5022 11.7298 40.4622 11.8698 40.4022 12.1098C40.3622 12.3298 40.3122 12.5398 40.2522 12.7398C40.1922 12.9398 40.1322 13.0398 40.0722 13.0398C39.9922 13.1198 39.9022 13.3498 39.8022 13.7298C39.7022 14.0898 39.6122 14.4998 39.5322 14.9598C39.4522 15.3998 39.4022 15.7898 39.3822 16.1298C39.3622 16.4498 39.3922 16.6098 39.4722 16.6098C40.0922 16.6098 40.7322 16.3698 41.3922 15.8898C42.0722 15.4098 42.7522 14.7098 43.4322 13.7898L43.9422 15.9198C43.6622 16.0598 43.4022 16.2098 43.1622 16.3698C42.9222 16.5098 42.7022 16.6798 42.5022 16.8798C42.4422 16.9598 42.3022 17.0698 42.0822 17.2098C41.8622 17.3498 41.6422 17.4798 41.4222 17.5998C41.2222 17.6998 41.0922 17.7498 41.0322 17.7498C41.0322 17.7498 41.0022 17.7598 40.9422 17.7798C40.9022 17.7798 40.8822 17.8198 40.8822 17.8998C40.8822 17.9398 40.7522 18.0198 40.4922 18.1398C40.2322 18.2398 39.9622 18.3298 39.6822 18.4098C39.4022 18.4898 39.2122 18.5298 39.1122 18.5298Z" fill="#34C759"/>
<path d="M57.1125 18.5298C56.8925 18.3898 56.6925 18.2098 56.5125 17.9898C56.3325 17.7498 56.2425 17.4498 56.2425 17.0898C56.2425 16.8898 56.2825 16.5498 56.3625 16.0698C56.4425 15.5898 56.5525 15.0498 56.6925 14.4498C56.8325 13.8498 56.9725 13.2898 57.1125 12.7698C57.3125 12.4098 57.4825 12.0498 57.6225 11.6898C57.7625 11.3298 57.8325 11.1098 57.8325 11.0298C57.8725 10.7898 57.9225 10.5098 57.9825 10.1898C58.0625 9.8698 58.1425 9.5798 58.2225 9.31981C58.3025 9.0598 58.3625 8.9098 58.4025 8.8698C58.5025 8.7698 58.6225 8.7098 58.7625 8.68981C58.9025 8.6498 59.0425 8.6698 59.1825 8.7498C59.3425 8.8098 59.4625 8.93981 59.5425 9.1398C59.7625 9.3798 59.8725 9.66981 59.8725 10.0098C59.8725 10.3298 59.7625 10.8098 59.5425 11.4498C59.3625 11.8498 59.1825 12.3198 59.0025 12.8598C58.8225 13.3998 58.6625 13.8998 58.5225 14.3598C58.4025 14.7998 58.3325 15.0998 58.3125 15.2598L57.7125 15.4398C58.0525 15.1198 58.3725 14.7898 58.6725 14.4498C58.9725 14.0898 59.1925 13.8098 59.3325 13.6098C59.6725 13.1498 59.9625 12.7698 60.2025 12.4698C60.4625 12.1498 60.7925 11.7698 61.1925 11.3298C61.5925 10.8698 61.9825 10.5898 62.3625 10.4898C62.7625 10.3698 63.0725 10.3098 63.2925 10.3098C63.7325 10.3898 64.0825 10.6198 64.3425 10.9998C64.6225 11.3598 64.8025 11.8998 64.8825 12.6198C64.8825 12.8998 64.8525 13.2298 64.7925 13.6098C64.7525 13.9898 64.7325 14.1798 64.7325 14.1798C64.7325 14.1798 64.8925 13.9698 65.2125 13.5498C65.5525 13.1298 66.0025 12.6698 66.5625 12.1698C66.9425 11.8898 67.3125 11.7298 67.6725 11.6898C68.0325 11.6298 68.3525 11.7498 68.6325 12.0498C69.1525 12.3298 69.4925 12.7598 69.6525 13.3398C69.8125 13.8998 69.8525 14.6198 69.7725 15.4998C69.7125 16.0198 69.7025 16.4098 69.7425 16.6698C69.7825 16.9098 69.8425 17.1498 69.9225 17.3898C70.0825 17.4698 70.1125 17.6398 70.0125 17.8998C69.9125 18.1398 69.7925 18.2598 69.6525 18.2598C69.4525 18.2598 69.2225 18.2198 68.9625 18.1398C68.7225 18.0598 68.5025 17.9298 68.3025 17.7498C68.1225 17.5498 68.0325 17.2798 68.0325 16.9398V15.0798C68.0325 14.6398 68.0125 14.2798 67.9725 13.9998C67.9525 13.7198 67.9025 13.5498 67.8225 13.4898C67.6025 13.3698 67.2825 13.4998 66.8625 13.8798C66.4425 14.2598 65.9925 14.7698 65.5125 15.4098C65.0325 16.0498 64.5825 16.7098 64.1625 17.3898C63.7825 18.0098 63.5425 18.3698 63.4425 18.4698C63.3625 18.5498 63.2125 18.5198 62.9925 18.3798C62.5525 18.2398 62.2725 18.0498 62.1525 17.8098C62.0525 17.5498 62.0425 17.2598 62.1225 16.9398C62.2225 16.5998 62.3425 16.1398 62.4825 15.5598C62.6425 14.9798 62.7925 14.4198 62.9325 13.8798C63.0725 13.3198 63.1625 12.9198 63.2025 12.6798C63.1225 12.5198 62.9825 12.4698 62.7825 12.5298C62.6025 12.5698 62.4125 12.6598 62.2125 12.7998C61.9725 12.9598 61.6825 13.2598 61.3425 13.6998C61.0025 14.1398 60.6525 14.6498 60.2925 15.2298C60.0525 15.6098 59.8025 15.9898 59.5425 16.3698C59.2825 16.7298 59.0425 17.0498 58.8225 17.3298C58.6025 17.6098 58.4125 17.8198 58.2525 17.9598C57.9725 18.3998 57.7825 18.6398 57.6825 18.6798C57.5825 18.7198 57.3925 18.6698 57.1125 18.5298Z" fill="#34C759"/>
<path d="M78.2196 18.9498C77.7996 19.3098 77.3096 19.5198 76.7496 19.5798C76.2096 19.6398 75.6796 19.5598 75.1596 19.3398C74.6396 19.0998 74.2096 18.7398 73.8696 18.2598C73.5296 17.8198 73.3096 17.3198 73.2096 16.7598C73.1096 16.1798 73.0996 15.4298 73.1796 14.5098C73.2396 13.7298 73.4896 12.9498 73.9296 12.1698C74.3696 11.3698 74.8996 10.6598 75.5196 10.0398C76.1596 9.4198 76.7896 8.9898 77.4096 8.7498C77.7096 8.5498 77.9596 8.4598 78.1596 8.4798C78.3796 8.4798 78.7096 8.4998 79.1496 8.5398C79.6096 8.5998 79.9496 8.68981 80.1696 8.8098C80.4096 8.92981 80.5996 9.0898 80.7396 9.2898C81.0396 9.5898 81.2396 9.88981 81.3396 10.1898C81.4396 10.4698 81.4896 10.7498 81.4896 11.0298C81.4096 11.4698 81.1096 12.0098 80.5896 12.6498C80.0896 13.2698 79.4296 13.7798 78.6096 14.1798C78.1696 14.3198 77.6896 14.3798 77.1696 14.3598C76.6496 14.3398 76.2196 14.2098 75.8796 13.9698C75.4996 13.8098 75.2496 13.8398 75.1296 14.0598C75.0096 14.2598 74.8996 14.7598 74.7996 15.5598C74.7196 16.3198 74.7796 16.8798 74.9796 17.2398C75.1796 17.5798 75.4496 17.7798 75.7896 17.8398C76.1896 17.9198 76.4996 17.9798 76.7196 18.0198C76.9596 18.0398 77.2496 17.9498 77.5896 17.7498C77.9096 17.5498 78.1096 17.4398 78.1896 17.4198C78.2696 17.3798 78.3296 17.3398 78.3696 17.2998C78.4296 17.2398 78.5596 17.1098 78.7596 16.9098C78.8996 16.7698 79.0096 16.6698 79.0896 16.6098C79.1696 16.5298 79.2596 16.4898 79.3596 16.4898C79.4596 16.4898 79.5496 16.5398 79.6296 16.6398C79.7096 16.7198 79.7896 16.7798 79.8696 16.8198C80.0696 16.8198 80.1096 16.9398 79.9896 17.1798C79.8896 17.4198 79.6796 17.7098 79.3596 18.0498C79.0396 18.3698 78.6596 18.6698 78.2196 18.9498ZM78.1896 12.5898C78.4096 12.4898 78.6396 12.3498 78.8796 12.1698C79.1196 11.9698 79.3196 11.7598 79.4796 11.5398C79.6596 11.2998 79.7496 11.0998 79.7496 10.9398C79.7496 10.6598 79.6196 10.4298 79.3596 10.2498C79.0996 10.0498 78.7096 10.0198 78.1896 10.1598C77.9696 10.2198 77.7196 10.3698 77.4396 10.6098C77.1596 10.8298 76.8896 11.0798 76.6296 11.3598C76.3896 11.6398 76.1896 11.8898 76.0296 12.1098C75.8896 12.3298 75.8396 12.4598 75.8796 12.4998C75.9396 12.5998 76.1096 12.6798 76.3896 12.7398C76.6696 12.7798 76.9796 12.7898 77.3196 12.7698C77.6796 12.7498 77.9696 12.6898 78.1896 12.5898Z" fill="#34C759"/>
<path d="M83.7154 18.9498C83.5354 18.8098 83.4054 18.6698 83.3254 18.5298C83.2654 18.3898 83.2654 18.1198 83.3254 17.7198C83.3854 17.1598 83.4654 16.6698 83.5654 16.2498C83.6654 15.8098 83.7854 15.3098 83.9254 14.7498C83.9654 14.5098 84.0754 14.0998 84.2554 13.5198C84.4554 12.9398 84.6954 12.3098 84.9754 11.6298C85.2554 10.9498 85.5354 10.3098 85.8154 9.7098C86.0954 9.0898 86.3354 8.6298 86.5354 8.3298C86.6954 8.2098 86.8854 8.15981 87.1054 8.1798C87.3454 8.19981 87.5454 8.2898 87.7054 8.4498C87.9254 8.6298 87.9554 8.94981 87.7954 9.40981C87.6554 9.8498 87.3554 10.5498 86.8954 11.5098C86.6554 12.0498 86.4754 12.4598 86.3554 12.7398C86.2354 12.9998 86.1854 13.1598 86.2054 13.2198C86.2254 13.2598 86.3154 13.2298 86.4754 13.1298C86.5954 12.9098 86.8154 12.6598 87.1354 12.3798C87.4554 12.0798 87.7954 11.7898 88.1554 11.5098C88.5154 11.2298 88.8554 10.9798 89.1754 10.7598C89.4954 10.5398 89.7154 10.3998 89.8354 10.3398C89.9954 10.2398 90.1754 10.1598 90.3754 10.0998C90.5954 10.0198 90.7454 9.9598 90.8254 9.9198C91.2854 9.69981 91.7554 9.6198 92.2354 9.6798C92.7154 9.7398 93.0154 9.9198 93.1354 10.2198C93.1554 10.3798 93.2154 10.4998 93.3154 10.5798C93.4354 10.6598 93.4954 10.6998 93.4954 10.6998C93.5754 10.6998 93.6154 10.7298 93.6154 10.7898C93.6354 10.8498 93.6454 10.8798 93.6454 10.8798C93.6454 11.0198 93.5354 11.1098 93.3154 11.1498C93.1154 11.1698 92.8554 11.1898 92.5354 11.2098C92.2754 11.2298 92.0454 11.2798 91.8454 11.3598C91.6454 11.4398 91.4054 11.5398 91.1254 11.6598C90.3654 12.0998 89.6354 12.5298 88.9354 12.9498C88.2554 13.3698 87.5954 13.9298 86.9554 14.6298C86.8154 14.7898 86.6754 14.9798 86.5354 15.1998C86.3954 15.4198 86.2454 15.6598 86.0854 15.9198C85.9854 16.0198 85.8854 16.2398 85.7854 16.5798C85.6854 16.9198 85.5954 17.2498 85.5154 17.5698C85.4554 17.8698 85.4254 18.0498 85.4254 18.1098C85.4254 18.1098 85.3954 18.2098 85.3354 18.4098C85.2754 18.5898 85.1754 18.7698 85.0354 18.9498C84.7954 19.2698 84.5954 19.4298 84.4354 19.4298C84.2754 19.4298 84.0354 19.2698 83.7154 18.9498Z" fill="#34C759"/>
<path d="M94.886 18.5898C94.686 18.4698 94.536 18.3498 94.436 18.2298C94.336 18.1098 94.286 17.9398 94.286 17.7198C94.286 17.4198 94.326 17.1098 94.406 16.7898C94.486 16.4498 94.566 16.1198 94.646 15.7998C94.686 15.4398 94.736 15.0798 94.796 14.7198C94.876 14.3398 95.016 13.9898 95.216 13.6698C95.436 12.9098 95.666 12.1598 95.906 11.4198C96.146 10.6598 96.356 9.8798 96.536 9.0798C96.796 8.3398 97.026 7.6898 97.226 7.1298C97.446 6.5498 97.716 5.8198 98.036 4.9398C98.216 4.4398 98.366 3.90981 98.486 3.34981C98.626 2.7698 98.836 2.2498 99.116 1.7898C99.236 1.6098 99.326 1.4598 99.386 1.3398C99.466 1.1998 99.546 1.0698 99.626 0.949804C99.646 0.869804 99.706 0.819804 99.806 0.799804C99.926 0.779804 100.056 0.789804 100.196 0.829804C100.336 0.869804 100.446 0.939805 100.526 1.0398C100.586 1.0198 100.656 1.0798 100.736 1.2198C100.836 1.3398 100.926 1.4798 101.006 1.6398C101.086 1.7998 101.116 1.9398 101.096 2.0598C101.096 2.1398 101.076 2.2498 101.036 2.3898C101.016 2.5298 100.966 2.6598 100.886 2.77981C100.806 2.8598 100.726 2.9798 100.646 3.1398C100.586 3.2798 100.486 3.4798 100.346 3.7398C100.266 3.9998 100.196 4.2698 100.136 4.5498C100.076 4.8098 99.996 5.0498 99.896 5.2698C99.816 5.5098 99.716 5.7398 99.596 5.9598C99.496 6.1798 99.426 6.3598 99.386 6.4998C99.246 6.95981 99.076 7.4098 98.876 7.8498C98.696 8.2898 98.536 8.7598 98.396 9.2598C98.256 9.7398 98.116 10.2398 97.976 10.7598C97.836 11.2598 97.636 11.7398 97.376 12.1998C97.236 12.4198 97.136 12.6998 97.076 13.0398C97.016 13.3798 96.956 13.7198 96.896 14.0598C96.776 14.4198 96.666 14.7598 96.566 15.0798C96.486 15.3798 96.446 15.5698 96.446 15.6498C96.326 16.0898 96.236 16.5298 96.176 16.9698C96.136 17.3898 96.036 17.7598 95.876 18.0798C95.856 18.2798 95.816 18.4398 95.756 18.5598C95.696 18.6798 95.596 18.7498 95.456 18.7698C95.316 18.7698 95.126 18.7098 94.886 18.5898Z" fill="#34C759"/>
<path d="M101.424 19.0698C101.124 19.0298 100.864 18.8198 100.644 18.4398C100.444 18.0398 100.324 17.6798 100.284 17.3598C100.304 17.1998 100.324 16.9698 100.344 16.6698C100.384 16.3698 100.424 16.0598 100.464 15.7398C100.544 15.3598 100.654 14.8998 100.794 14.3598C100.934 13.7998 101.074 13.2398 101.214 12.6798C101.374 12.1198 101.514 11.6398 101.634 11.2398C101.754 10.8398 101.834 10.5998 101.874 10.5198C101.974 10.3598 102.134 10.3198 102.354 10.3998C102.574 10.4798 102.754 10.5998 102.894 10.7598C103.014 10.9198 103.084 11.1098 103.104 11.3298C103.144 11.5498 103.114 11.8698 103.014 12.2898C102.934 12.7098 102.774 13.3298 102.534 14.1498C102.314 14.9498 102.144 15.5998 102.024 16.0998C101.924 16.5798 101.884 17.0898 101.904 17.6298C101.824 18.3098 101.764 18.7298 101.724 18.8898C101.684 19.0298 101.584 19.0898 101.424 19.0698ZM104.874 7.0998C104.794 7.1598 104.714 7.18981 104.634 7.18981C104.574 7.1698 104.464 7.1098 104.304 7.0098C104.164 6.9898 103.984 6.8998 103.764 6.7398C103.564 6.5598 103.384 6.3798 103.224 6.19981C103.084 5.9998 103.014 5.8798 103.014 5.8398C102.994 5.6398 103.004 5.3898 103.044 5.08981C103.104 4.76981 103.214 4.4898 103.374 4.2498C103.534 3.9898 103.764 3.8498 104.064 3.8298C104.144 3.8298 104.214 3.8398 104.274 3.8598C104.334 3.8798 104.514 3.94981 104.814 4.0698C104.974 4.3698 105.134 4.7098 105.294 5.08981C105.454 5.4498 105.524 5.8098 105.504 6.1698C105.484 6.5098 105.274 6.8198 104.874 7.0998Z" fill="#34C759"/>
<path d="M107.41 18.6798C107.33 18.6798 107.21 18.6298 107.05 18.5298C106.91 18.4098 106.8 18.3098 106.72 18.2298C106.58 18.0698 106.49 17.9098 106.45 17.7498C106.43 17.5898 106.42 17.2298 106.42 16.6698C106.42 16.0298 106.55 15.3398 106.81 14.5998C107.07 13.8398 107.51 12.7798 108.13 11.4198L109.12 9.31981C109.2 9.1598 109.27 9.0398 109.33 8.9598C109.41 8.8798 109.48 8.7998 109.54 8.7198C109.62 8.7198 109.69 8.7198 109.75 8.7198C109.81 8.7198 109.84 8.7198 109.84 8.7198C110 8.7198 110.16 8.81981 110.32 9.0198C110.48 9.19981 110.6 9.3998 110.68 9.6198C110.68 9.8798 110.64 10.1498 110.56 10.4298C110.5 10.7098 110.26 11.1298 109.84 11.6898C109.7 11.9098 109.51 12.2798 109.27 12.7998C109.05 13.3198 108.9 13.7698 108.82 14.1498C108.8 14.1698 108.76 14.2598 108.7 14.4198C108.64 14.5598 108.57 14.7198 108.49 14.8998C108.43 15.0798 108.36 15.2498 108.28 15.4098L108.13 16.0698L110.14 13.9998C111.08 13.0598 111.84 12.3898 112.42 11.9898C113 11.5898 113.46 11.4198 113.8 11.4798C114.14 11.5398 114.43 11.8098 114.67 12.2898C114.81 12.5098 114.91 12.7098 114.97 12.8898C115.05 13.0498 115.1 13.2698 115.12 13.5498C115.14 13.8298 115.12 14.2498 115.06 14.8098V16.6698C115.36 16.5898 115.6 16.5198 115.78 16.4598C115.96 16.3798 116.15 16.2998 116.35 16.2198C116.53 16.1398 116.74 16.0698 116.98 16.0098C117.22 15.9298 117.52 15.8798 117.88 15.8598C117.86 16.1198 117.77 16.3998 117.61 16.6998C117.45 16.9798 117.25 17.2498 117.01 17.5098C116.77 17.7698 116.5 17.9798 116.2 18.1398C115.92 18.2998 115.64 18.3798 115.36 18.3798C115.1 18.3798 114.81 18.2498 114.49 17.9898C114.17 17.7298 113.94 17.4398 113.8 17.1198C113.72 16.8998 113.67 16.6598 113.65 16.3998C113.65 16.1398 113.65 15.6598 113.65 14.9598V13.8498C113.65 13.5298 113.55 13.4398 113.35 13.5798C113.17 13.6998 113.02 13.8098 112.9 13.9098C112.6 14.1698 112.28 14.4698 111.94 14.8098C111.62 15.1498 111.29 15.4998 110.95 15.8598C110.03 16.8198 109.26 17.5298 108.64 17.9898C108.04 18.4498 107.63 18.6798 107.41 18.6798Z" fill="#34C759"/>
<path d="M128.332 23.1798C128.212 23.2598 128.072 23.2398 127.912 23.1198C127.772 22.9998 127.562 22.7798 127.282 22.4598C127.142 22.2998 127.052 22.1298 127.012 21.9498C126.972 21.7698 126.982 21.4298 127.042 20.9298C127.122 20.7098 127.162 20.4998 127.162 20.2998C127.182 20.0998 127.192 19.9598 127.192 19.8798C127.192 19.7598 127.222 19.4798 127.282 19.0398C127.362 18.5998 127.442 18.1398 127.522 17.6598C127.602 17.1598 127.672 16.7798 127.732 16.5198C127.732 16.4998 127.742 16.4498 127.762 16.3698C127.782 16.2898 127.802 16.2198 127.822 16.1598C127.862 15.9798 127.912 15.7398 127.972 15.4398C128.052 15.1398 128.122 14.7698 128.182 14.3298C128.342 13.8298 128.472 13.3398 128.572 12.8598C128.692 12.3598 128.752 12.0198 128.752 11.8398C128.752 11.4798 128.892 11.2198 129.172 11.0598C129.192 10.9598 129.252 10.8098 129.352 10.6098C129.452 10.3898 129.542 10.2098 129.622 10.0698C130.022 8.9298 130.352 8.0298 130.612 7.3698C130.872 6.6898 131.142 6.0998 131.422 5.5998C131.542 5.25981 131.672 4.9098 131.812 4.5498C131.972 4.1898 132.132 3.9098 132.292 3.7098C132.392 3.4498 132.622 3.1198 132.982 2.7198C133.342 2.2998 133.722 1.8998 134.122 1.5198C134.522 1.1198 134.842 0.819804 135.082 0.619805C135.522 0.399805 135.872 0.249805 136.132 0.169805C136.392 0.0898048 136.732 0.0498047 137.152 0.0498047C137.532 0.0498047 137.782 0.0998046 137.902 0.199805C138.042 0.279805 138.242 0.439804 138.502 0.679804C138.782 0.979805 138.942 1.17981 138.982 1.2798C139.022 1.3798 139.042 1.5698 139.042 1.8498C139.002 2.1098 138.892 2.4498 138.712 2.8698C138.552 3.2698 138.372 3.6398 138.172 3.9798C137.992 4.2998 137.842 4.46981 137.722 4.4898C137.482 4.5698 137.302 4.5498 137.182 4.4298C137.082 4.2898 137.032 4.0698 137.032 3.7698C137.032 3.6298 136.992 3.4998 136.912 3.3798C136.852 3.2398 136.822 3.1698 136.822 3.1698C136.822 3.1098 136.832 3.0098 136.852 2.8698C136.892 2.7098 136.952 2.5598 137.032 2.4198C137.132 2.2198 137.152 2.0698 137.092 1.96981C137.052 1.86981 136.922 1.8498 136.702 1.9098C136.642 1.9498 136.482 2.0698 136.222 2.2698C135.962 2.4698 135.682 2.6998 135.382 2.9598C135.102 3.1998 134.852 3.4298 134.632 3.6498C134.412 3.8698 134.302 4.0098 134.302 4.0698C134.302 4.0698 134.262 4.1598 134.182 4.3398C134.102 4.4998 133.952 4.7098 133.732 4.9698C133.592 5.1698 133.462 5.3698 133.342 5.5698C133.242 5.7498 133.192 5.8598 133.192 5.8998C133.192 5.9798 133.182 6.0698 133.162 6.1698C133.162 6.2498 133.112 6.2898 133.012 6.2898C133.012 6.2898 132.982 6.3798 132.922 6.5598C132.862 6.7398 132.752 6.96981 132.592 7.2498C132.512 7.4498 132.412 7.6598 132.292 7.87981C132.172 8.0798 132.072 8.2198 131.992 8.2998H132.022C132.022 8.2998 131.972 8.4298 131.872 8.68981C131.792 8.9298 131.702 9.1898 131.602 9.4698C131.502 9.7298 131.452 9.8798 131.452 9.9198C131.452 9.9998 131.592 10.0398 131.872 10.0398C132.172 10.0398 132.522 10.0098 132.922 9.94981C133.322 9.86981 133.682 9.7898 134.002 9.7098C134.282 9.6298 134.472 9.58981 134.572 9.58981C134.672 9.58981 134.872 9.6298 135.172 9.7098C135.332 9.8098 135.462 9.9598 135.562 10.1598C135.682 10.3398 135.762 10.5198 135.802 10.6998C135.862 10.8598 135.862 10.9798 135.802 11.0598C135.782 11.1398 135.562 11.2498 135.142 11.3898C134.722 11.5298 134.302 11.6398 133.882 11.7198C133.522 11.7998 133.082 11.8898 132.562 11.9898C132.042 12.0898 131.582 12.1798 131.182 12.2598C130.802 12.3398 130.612 12.4098 130.612 12.4698C130.532 12.4698 130.462 12.5198 130.402 12.6198C130.342 12.6998 130.312 12.7698 130.312 12.8298C130.312 13.1098 130.272 13.3198 130.192 13.4598C130.152 13.5798 130.082 13.8198 129.982 14.1798C129.882 14.5398 129.772 14.9398 129.652 15.3798C129.552 15.8198 129.462 16.2198 129.382 16.5798C129.322 16.9398 129.292 17.1798 129.292 17.2998C129.172 17.4398 129.102 17.6198 129.082 17.8398C129.062 18.0398 129.052 18.2198 129.052 18.3798C128.972 18.5398 128.922 18.6898 128.902 18.8298C128.882 18.9498 128.872 19.0498 128.872 19.1298C128.872 19.1498 128.872 19.1898 128.872 19.2498C128.872 19.3098 128.862 19.3698 128.842 19.4298C128.822 19.6298 128.792 19.8898 128.752 20.2098C128.732 20.5498 128.722 20.8798 128.722 21.1998L128.632 22.0698C128.612 22.3298 128.582 22.5498 128.542 22.7298C128.502 22.9298 128.432 23.0798 128.332 23.1798Z" fill="#34C759"/>
<path d="M138.652 19.0698C138.592 19.0898 138.492 19.0798 138.352 19.0398C138.212 18.9998 138.072 18.9498 137.932 18.8898C137.792 18.8298 137.702 18.7798 137.662 18.7398C137.582 18.6598 137.502 18.5398 137.422 18.3798C137.362 18.2198 137.362 17.9898 137.422 17.6898C137.482 17.3698 137.682 16.9598 138.022 16.4598C138.122 16.2598 138.242 15.9598 138.382 15.5598C138.522 15.1598 138.662 14.7398 138.802 14.2998C138.962 13.8398 139.102 13.4298 139.222 13.0698C139.362 12.7098 139.462 12.4598 139.522 12.3198C139.562 11.9798 139.542 11.7398 139.462 11.5998C139.402 11.4398 139.232 11.3498 138.952 11.3298C138.752 11.3298 138.592 11.3098 138.472 11.2698C138.372 11.2298 138.322 11.0298 138.322 10.6698C138.362 10.3898 138.432 10.1998 138.532 10.0998C138.652 9.9798 138.812 9.8498 139.012 9.7098C139.212 9.6098 139.412 9.5398 139.612 9.4998C139.832 9.4598 140.042 9.4498 140.242 9.4698C140.442 9.4898 140.602 9.5598 140.722 9.6798C140.862 9.7598 140.952 9.9398 140.992 10.2198C141.032 10.4798 141.052 10.7498 141.052 11.0298C141.072 11.3098 141.092 11.5198 141.112 11.6598C141.312 11.4998 141.582 11.2798 141.922 10.9998C142.282 10.6998 142.592 10.4198 142.852 10.1598C143.172 9.93981 143.552 9.7198 143.992 9.4998C144.432 9.2598 144.752 9.1398 144.952 9.1398C145.172 9.1398 145.392 9.1998 145.612 9.31981C145.832 9.41981 145.982 9.5498 146.062 9.7098C146.262 10.0498 146.352 10.3498 146.332 10.6098C146.332 10.8698 146.222 11.1398 146.002 11.4198C145.802 11.6798 145.552 11.8598 145.252 11.9598C144.972 12.0598 144.792 12.1098 144.712 12.1098C144.592 12.1098 144.442 12.0198 144.262 11.8398C144.082 11.6598 143.982 11.5098 143.962 11.3898C143.962 11.3298 143.832 11.3898 143.572 11.5698C143.332 11.7298 143.062 11.9398 142.762 12.1998C142.462 12.4398 142.212 12.6598 142.012 12.8598C141.672 13.2798 141.312 13.8498 140.932 14.5698C140.552 15.2898 140.102 16.1598 139.582 17.1798C139.342 17.6798 139.172 18.1098 139.072 18.4698C138.972 18.8098 138.832 19.0098 138.652 19.0698Z" fill="#34C759"/>
<path d="M150.183 19.2798C149.403 18.9598 148.893 18.5198 148.653 17.9598C148.433 17.3798 148.393 16.4898 148.533 15.2898C148.573 14.6698 148.593 14.2598 148.593 14.0598C148.593 13.8598 148.483 13.6598 148.263 13.4598C148.203 13.3798 148.093 13.2698 147.933 13.1298C147.793 12.9898 147.733 12.8698 147.753 12.7698C147.733 12.6298 147.743 12.4798 147.783 12.3198C147.823 12.1398 147.883 12.0498 147.963 12.0498C148.043 12.0498 148.123 12.0298 148.203 11.9898C148.303 11.9498 148.393 11.9498 148.473 11.9898C148.553 11.9898 148.643 11.9998 148.743 12.0198C148.843 12.0398 148.893 12.0898 148.893 12.1698C148.973 12.3098 149.103 12.3298 149.283 12.2298C149.463 12.1098 149.653 11.8498 149.853 11.4498C150.053 11.1298 150.313 10.8098 150.633 10.4898C150.973 10.1698 151.303 9.8798 151.623 9.6198C151.963 9.3398 152.243 9.13981 152.463 9.0198C152.563 8.9798 152.713 8.9298 152.913 8.8698C153.113 8.8098 153.323 8.7598 153.543 8.7198C153.783 8.6798 153.983 8.6698 154.143 8.68981C154.503 8.7098 154.803 8.80981 155.043 8.98981C155.303 9.16981 155.543 9.3798 155.763 9.6198C156.023 9.7998 156.183 10.0398 156.243 10.3398C156.323 10.6398 156.343 10.9598 156.303 11.2998C156.263 11.6398 156.173 11.9498 156.033 12.2298C155.973 12.4298 155.803 12.6698 155.523 12.9498C155.243 13.2298 154.923 13.4998 154.563 13.7598C154.203 14.0198 153.873 14.2098 153.573 14.3298C153.313 14.3898 152.973 14.4398 152.553 14.4798C152.153 14.5198 151.773 14.5398 151.413 14.5398C151.073 14.5198 150.843 14.4798 150.723 14.4198C150.583 14.3398 150.473 14.4498 150.393 14.7498C150.313 15.0498 150.253 15.4798 150.213 16.0398C150.173 16.4798 150.173 16.7998 150.213 16.9998C150.253 17.1998 150.293 17.3398 150.333 17.4198C150.473 17.5598 150.663 17.7398 150.903 17.9598C151.163 18.1598 151.523 18.1898 151.983 18.0498C152.363 17.9498 152.733 17.6898 153.093 17.2698C153.473 16.8498 153.823 16.5098 154.143 16.2498C154.223 16.1098 154.353 16.0298 154.533 16.0098C154.733 15.9698 154.943 15.9798 155.163 16.0398C155.383 16.1798 155.473 16.3498 155.433 16.5498C155.413 16.7298 155.313 17.0098 155.133 17.3898C155.073 17.5298 154.933 17.7098 154.713 17.9298C154.513 18.1298 154.283 18.3398 154.023 18.5598C153.783 18.7598 153.563 18.9198 153.363 19.0398C152.763 19.3598 152.203 19.5298 151.683 19.5498C151.163 19.5498 150.663 19.4598 150.183 19.2798ZM151.953 13.1898C152.393 13.0898 152.743 13.0198 153.003 12.9798C153.263 12.9398 153.513 12.8298 153.753 12.6498C153.993 12.4498 154.293 12.0798 154.653 11.5398C154.733 11.3198 154.753 11.0998 154.713 10.8798C154.693 10.6598 154.643 10.5098 154.563 10.4298C154.383 10.2298 154.163 10.1698 153.903 10.2498C153.663 10.3098 153.433 10.4198 153.213 10.5798C153.073 10.6398 152.863 10.7898 152.583 11.0298C152.323 11.2498 152.063 11.5098 151.803 11.8098C151.543 12.0898 151.333 12.3498 151.173 12.5898C151.013 12.8298 150.973 12.9698 151.053 13.0098C151.013 13.0898 151.123 13.1398 151.383 13.1598C151.663 13.1798 151.853 13.1898 151.953 13.1898Z" fill="#34C759"/>
<path d="M163.568 18.9498C163.148 19.3098 162.658 19.5198 162.098 19.5798C161.558 19.6398 161.028 19.5598 160.508 19.3398C159.988 19.0998 159.558 18.7398 159.218 18.2598C158.878 17.8198 158.658 17.3198 158.558 16.7598C158.458 16.1798 158.448 15.4298 158.528 14.5098C158.588 13.7298 158.838 12.9498 159.278 12.1698C159.718 11.3698 160.248 10.6598 160.868 10.0398C161.508 9.4198 162.138 8.9898 162.758 8.7498C163.058 8.5498 163.308 8.4598 163.508 8.4798C163.728 8.4798 164.058 8.4998 164.498 8.5398C164.958 8.5998 165.298 8.68981 165.518 8.8098C165.758 8.92981 165.948 9.0898 166.088 9.2898C166.388 9.5898 166.588 9.88981 166.688 10.1898C166.788 10.4698 166.838 10.7498 166.838 11.0298C166.758 11.4698 166.458 12.0098 165.938 12.6498C165.438 13.2698 164.778 13.7798 163.958 14.1798C163.518 14.3198 163.038 14.3798 162.518 14.3598C161.998 14.3398 161.568 14.2098 161.228 13.9698C160.848 13.8098 160.598 13.8398 160.478 14.0598C160.358 14.2598 160.248 14.7598 160.148 15.5598C160.068 16.3198 160.128 16.8798 160.328 17.2398C160.528 17.5798 160.798 17.7798 161.138 17.8398C161.538 17.9198 161.848 17.9798 162.068 18.0198C162.308 18.0398 162.598 17.9498 162.938 17.7498C163.258 17.5498 163.458 17.4398 163.538 17.4198C163.618 17.3798 163.678 17.3398 163.718 17.2998C163.778 17.2398 163.908 17.1098 164.108 16.9098C164.248 16.7698 164.358 16.6698 164.438 16.6098C164.518 16.5298 164.608 16.4898 164.708 16.4898C164.808 16.4898 164.898 16.5398 164.978 16.6398C165.058 16.7198 165.138 16.7798 165.218 16.8198C165.418 16.8198 165.458 16.9398 165.338 17.1798C165.238 17.4198 165.028 17.7098 164.708 18.0498C164.388 18.3698 164.008 18.6698 163.568 18.9498ZM163.538 12.5898C163.758 12.4898 163.988 12.3498 164.228 12.1698C164.468 11.9698 164.668 11.7598 164.828 11.5398C165.008 11.2998 165.098 11.0998 165.098 10.9398C165.098 10.6598 164.968 10.4298 164.708 10.2498C164.448 10.0498 164.058 10.0198 163.538 10.1598C163.318 10.2198 163.068 10.3698 162.788 10.6098C162.508 10.8298 162.238 11.0798 161.978 11.3598C161.738 11.6398 161.538 11.8898 161.378 12.1098C161.238 12.3298 161.188 12.4598 161.228 12.4998C161.288 12.5998 161.458 12.6798 161.738 12.7398C162.018 12.7798 162.328 12.7898 162.668 12.7698C163.028 12.7498 163.318 12.6898 163.538 12.5898Z" fill="#34C759"/>
<path d="M177.92 22.9998C177.78 22.9598 177.63 22.8798 177.47 22.7598C177.31 22.6598 177.23 22.5698 177.23 22.4898C177.25 22.3498 177.28 22.2198 177.32 22.0998C177.36 21.9998 177.39 21.8998 177.41 21.7998C177.45 21.5998 177.47 21.3598 177.47 21.0798C177.47 20.8198 177.5 20.3198 177.56 19.5798C177.62 18.7798 177.67 18.1098 177.71 17.5698C177.77 17.0298 177.83 16.5498 177.89 16.1298C177.95 15.6898 178.02 15.2498 178.1 14.8098C178.2 14.3698 178.32 13.8498 178.46 13.2498C178.56 12.5698 178.56 12.1498 178.46 11.9898C178.38 11.8298 178.23 11.7398 178.01 11.7198C177.63 11.6798 177.29 11.6198 176.99 11.5398C176.71 11.4398 176.53 11.2698 176.45 11.0298C176.25 10.8298 176.2 10.6698 176.3 10.5498C176.4 10.4298 176.6 10.3398 176.9 10.2798C177.22 10.1998 177.56 10.1698 177.92 10.1898C178.26 10.1698 178.52 10.1498 178.7 10.1298C178.9 10.0898 179.06 9.9898 179.18 9.8298C179.3 9.6498 179.42 9.3498 179.54 8.9298C179.58 8.7498 179.65 8.4998 179.75 8.1798C179.87 7.8598 179.97 7.5698 180.05 7.3098C180.15 7.0498 180.2 6.9198 180.2 6.9198C180.38 6.7798 180.47 6.5998 180.47 6.3798C180.49 6.0998 180.62 5.7298 180.86 5.2698C181.12 4.7898 181.53 4.1198 182.09 3.2598C182.77 2.3798 183.38 1.6898 183.92 1.1898C184.48 0.689805 185.13 0.379805 185.87 0.259804C185.95 0.219804 186.13 0.199805 186.41 0.199805C186.69 0.199805 186.88 0.199805 186.98 0.199805C187.4 0.219804 187.69 0.299804 187.85 0.439805C188.01 0.579804 188.18 0.819804 188.36 1.1598C188.52 1.4198 188.54 1.77981 188.42 2.23981C188.32 2.6798 188.19 3.0198 188.03 3.2598C187.93 3.4198 187.78 3.5998 187.58 3.7998C187.4 3.9998 187.22 4.1798 187.04 4.3398C186.88 4.4798 186.76 4.5498 186.68 4.5498C186.58 4.5498 186.48 4.5198 186.38 4.45981C186.3 4.3798 186.22 4.32981 186.14 4.30981C185.96 4.22981 185.93 4.08981 186.05 3.88981C186.17 3.6698 186.3 3.4598 186.44 3.2598C186.64 2.9598 186.77 2.71981 186.83 2.5398C186.89 2.3598 186.91 2.1998 186.89 2.0598C186.87 1.9198 186.83 1.7498 186.77 1.54981L187.04 1.81981C186.9 1.7398 186.74 1.7098 186.56 1.7298C186.38 1.7498 186.18 1.7998 185.96 1.8798C185.58 2.0798 185.27 2.2998 185.03 2.5398C184.79 2.7598 184.59 2.9498 184.43 3.1098C183.95 3.5298 183.56 4.0398 183.26 4.6398C182.96 5.2398 182.68 5.7998 182.42 6.3198C182.34 6.4798 182.2 6.7798 182 7.2198C181.82 7.6398 181.65 8.03981 181.49 8.41981C181.35 8.77981 181.21 9.0998 181.07 9.37981C180.93 9.63981 180.86 9.7998 180.86 9.8598C180.8 9.9998 180.83 10.0698 180.95 10.0698C181.09 10.0698 181.36 10.0598 181.76 10.0398C182.74 9.9198 183.47 9.8898 183.95 9.94981C184.45 9.98981 184.74 10.1698 184.82 10.4898C185.16 10.9698 185.11 11.2698 184.67 11.3898C184.25 11.4898 183.47 11.6198 182.33 11.7798C182.01 11.7998 181.69 11.8198 181.37 11.8398C181.05 11.8398 180.84 11.8498 180.74 11.8698C180.66 11.8898 180.58 11.9198 180.5 11.9598C180.42 11.9998 180.33 12.1998 180.23 12.5598C180.21 12.7798 180.17 13.0498 180.11 13.3698C180.07 13.6698 180.04 13.9598 180.02 14.2398C179.94 14.4798 179.88 14.7298 179.84 14.9898C179.82 15.2498 179.76 15.4798 179.66 15.6798C179.54 16.7798 179.46 17.7998 179.42 18.7398C179.38 19.6598 179.32 20.4498 179.24 21.1098C179.18 21.7698 179.02 22.2798 178.76 22.6398C178.62 22.7998 178.47 22.9198 178.31 22.9998C178.17 23.0998 178.04 23.0998 177.92 22.9998Z" fill="#34C759"/>
<path d="M188.54 18.8598C188.12 18.9398 187.85 18.9698 187.73 18.9498C187.63 18.9098 187.47 18.7898 187.25 18.5898C186.93 18.4298 186.66 18.2298 186.44 17.9898C186.24 17.7498 186.09 17.4998 185.99 17.2398C185.91 16.9598 185.88 16.7298 185.9 16.5498C185.96 15.8498 186.13 15.0998 186.41 14.2998C186.69 13.4998 187.03 12.7298 187.43 11.9898C187.83 11.2498 188.26 10.6198 188.72 10.0998C189.2 9.5598 189.66 9.2098 190.1 9.0498C190.5 8.8898 190.88 8.8298 191.24 8.8698C191.6 8.9098 191.86 9.0998 192.02 9.4398C192.32 10.0198 192.25 10.3898 191.81 10.5498C191.75 10.5498 191.68 10.5798 191.6 10.6398C191.52 10.6798 191.48 10.7398 191.48 10.8198C191.56 10.8598 191.78 10.8698 192.14 10.8498C192.5 10.8098 192.86 10.7498 193.22 10.6698C193.6 10.5698 193.85 10.4698 193.97 10.3698C194.09 10.3098 194.18 10.2798 194.24 10.2798C194.3 10.2798 194.45 10.2998 194.69 10.3398C195.03 10.4398 195.2 10.5598 195.2 10.6998C195.2 10.7798 195.23 10.8598 195.29 10.9398C195.35 10.9998 195.42 11.0298 195.5 11.0298C195.64 11.0498 195.62 11.1398 195.44 11.2998C195.28 11.4598 195 11.6798 194.6 11.9598C194.22 12.1998 193.98 12.3598 193.88 12.4398C193.8 12.4998 193.79 12.6398 193.85 12.8598C194.01 13.2398 194.02 13.6798 193.88 14.1798C193.74 14.6798 193.49 15.1898 193.13 15.7098C192.77 16.2298 192.33 16.7198 191.81 17.1798C191.31 17.6198 190.77 17.9998 190.19 18.3198C189.63 18.6198 189.08 18.7998 188.54 18.8598ZM188.03 17.5398C188.11 17.5398 188.25 17.4998 188.45 17.4198C188.65 17.3198 188.81 17.2398 188.93 17.1798C189.01 17.0998 189.11 17.0098 189.23 16.9098C189.37 16.7898 189.48 16.7198 189.56 16.6998C189.64 16.6998 189.74 16.6698 189.86 16.6098C189.98 16.5298 190.15 16.3798 190.37 16.1598C190.59 15.9198 190.88 15.5698 191.24 15.1098C191.64 14.6698 191.95 14.2698 192.17 13.9098C192.39 13.5298 192.45 13.1798 192.35 12.8598C192.33 12.7798 192.27 12.7298 192.17 12.7098C192.09 12.6898 191.98 12.6398 191.84 12.5598C191.64 12.5598 191.45 12.5098 191.27 12.4098C191.11 12.2898 190.92 12.1398 190.7 11.9598L190.22 11.3598L189.71 11.8698C189.39 12.1898 189.05 12.6698 188.69 13.3098C188.35 13.9298 188.06 14.5698 187.82 15.2298C187.58 15.8698 187.44 16.3798 187.4 16.7598C187.38 17.0598 187.43 17.2598 187.55 17.3598C187.67 17.4598 187.83 17.5198 188.03 17.5398Z" fill="#34C759"/>
<path d="M196.987 18.9498C196.807 18.8098 196.677 18.6698 196.597 18.5298C196.537 18.3898 196.537 18.1198 196.597 17.7198C196.657 17.1598 196.737 16.6698 196.837 16.2498C196.937 15.8098 197.057 15.3098 197.197 14.7498C197.237 14.5098 197.347 14.0998 197.527 13.5198C197.727 12.9398 197.967 12.3098 198.247 11.6298C198.527 10.9498 198.807 10.3098 199.087 9.7098C199.367 9.0898 199.607 8.6298 199.807 8.3298C199.967 8.2098 200.157 8.15981 200.377 8.1798C200.617 8.19981 200.817 8.2898 200.977 8.4498C201.197 8.6298 201.227 8.94981 201.067 9.40981C200.927 9.8498 200.627 10.5498 200.167 11.5098C199.927 12.0498 199.747 12.4598 199.627 12.7398C199.507 12.9998 199.457 13.1598 199.477 13.2198C199.497 13.2598 199.587 13.2298 199.747 13.1298C199.867 12.9098 200.087 12.6598 200.407 12.3798C200.727 12.0798 201.067 11.7898 201.427 11.5098C201.787 11.2298 202.127 10.9798 202.447 10.7598C202.767 10.5398 202.987 10.3998 203.107 10.3398C203.267 10.2398 203.447 10.1598 203.647 10.0998C203.867 10.0198 204.017 9.9598 204.097 9.9198C204.557 9.69981 205.027 9.6198 205.507 9.6798C205.987 9.7398 206.287 9.9198 206.407 10.2198C206.427 10.3798 206.487 10.4998 206.587 10.5798C206.707 10.6598 206.767 10.6998 206.767 10.6998C206.847 10.6998 206.887 10.7298 206.887 10.7898C206.907 10.8498 206.917 10.8798 206.917 10.8798C206.917 11.0198 206.807 11.1098 206.587 11.1498C206.387 11.1698 206.127 11.1898 205.807 11.2098C205.547 11.2298 205.317 11.2798 205.117 11.3598C204.917 11.4398 204.677 11.5398 204.397 11.6598C203.637 12.0998 202.907 12.5298 202.207 12.9498C201.527 13.3698 200.867 13.9298 200.227 14.6298C200.087 14.7898 199.947 14.9798 199.807 15.1998C199.667 15.4198 199.517 15.6598 199.357 15.9198C199.257 16.0198 199.157 16.2398 199.057 16.5798C198.957 16.9198 198.867 17.2498 198.787 17.5698C198.727 17.8698 198.697 18.0498 198.697 18.1098C198.697 18.1098 198.667 18.2098 198.607 18.4098C198.547 18.5898 198.447 18.7698 198.307 18.9498C198.067 19.2698 197.867 19.4298 197.707 19.4298C197.547 19.4298 197.307 19.2698 196.987 18.9498Z" fill="#34C759"/>
<path d="M219.023 20.5398C218.783 20.4998 218.573 20.3698 218.393 20.1498C218.213 19.9298 218.063 19.6798 217.943 19.3998C217.863 19.0198 218.023 18.3598 218.423 17.4198C218.823 16.4598 219.363 15.3398 220.043 14.0598C220.483 13.3398 220.693 12.9198 220.673 12.7998C220.653 12.6798 220.463 12.6198 220.103 12.6198C219.923 12.5798 219.713 12.5398 219.473 12.4998C219.233 12.4398 219.083 12.3698 219.023 12.2898C218.703 12.1298 218.513 11.9598 218.453 11.7798C218.413 11.5798 218.483 11.4698 218.663 11.4498C218.743 11.4098 218.773 11.3598 218.753 11.2998C218.733 11.2198 218.733 11.1498 218.753 11.0898C218.813 11.0698 218.883 11.0698 218.963 11.0898C219.063 11.1098 219.163 11.1298 219.263 11.1498C219.543 11.1498 219.753 11.1498 219.893 11.1498C220.033 11.1498 220.213 11.1498 220.433 11.1498C220.533 11.1498 220.653 11.1498 220.793 11.1498C220.953 11.1498 221.093 11.1598 221.213 11.1798C221.493 11.2198 221.683 11.1998 221.783 11.1198C221.883 11.0198 222.073 10.7898 222.353 10.4298C222.513 10.1498 222.763 9.77981 223.103 9.31981C223.443 8.8398 223.743 8.3498 224.003 7.8498C224.963 6.4898 225.493 5.5798 225.593 5.1198C225.713 4.6598 225.483 4.4498 224.903 4.4898C224.583 4.5098 224.223 4.5798 223.823 4.6998C223.443 4.8198 222.873 5.01981 222.113 5.29981C221.373 5.6198 220.853 5.8198 220.553 5.8998C220.273 5.95981 220.023 5.92981 219.803 5.8098C219.683 5.7898 219.583 5.7298 219.503 5.6298C219.443 5.5098 219.403 5.3798 219.383 5.2398C219.383 5.07981 219.393 4.92981 219.413 4.7898C219.453 4.5698 219.863 4.3298 220.643 4.0698C221.423 3.8098 222.323 3.5498 223.343 3.2898C223.803 3.2098 224.243 3.1598 224.663 3.1398C225.083 3.1198 225.443 3.1398 225.743 3.19981C226.063 3.2598 226.263 3.3698 226.343 3.5298C226.343 3.5298 226.363 3.5598 226.403 3.61981C226.463 3.6598 226.503 3.6398 226.523 3.5598C226.603 3.5798 226.663 3.6598 226.703 3.7998C226.743 3.9198 226.823 4.0798 226.943 4.2798C227.143 4.6198 227.263 4.8698 227.303 5.02981C227.363 5.1898 227.363 5.4198 227.303 5.7198C227.243 5.9398 227.143 6.1598 227.003 6.3798C226.863 6.5998 226.753 6.7398 226.673 6.7998C226.573 6.8798 226.493 6.9698 226.433 7.0698C226.393 7.1698 226.373 7.2198 226.373 7.2198C226.353 7.2998 226.293 7.3798 226.193 7.45981C226.093 7.5198 225.993 7.6098 225.893 7.7298C225.873 7.8098 225.823 7.8998 225.743 7.9998C225.683 8.0998 225.643 8.17981 225.623 8.23981C225.603 8.2598 225.523 8.3798 225.383 8.5998C225.243 8.81981 225.073 9.07981 224.873 9.37981C224.673 9.67981 224.483 9.9598 224.303 10.2198C224.143 10.4598 224.033 10.6298 223.973 10.7298C223.693 10.9898 223.553 11.1798 223.553 11.2998C223.553 11.4198 223.683 11.5398 223.943 11.6598C224.283 11.7998 224.563 11.9698 224.783 12.1698C225.003 12.3498 225.153 12.5798 225.233 12.8598C225.253 13.2598 225.203 13.4898 225.083 13.5498C224.983 13.6898 224.823 13.7498 224.603 13.7298C224.403 13.7098 224.273 13.6598 224.213 13.5798C224.153 13.4598 224.013 13.3498 223.793 13.2498C223.593 13.1298 223.393 13.0398 223.193 12.9798C222.993 12.9198 222.863 12.8898 222.803 12.8898C222.723 12.9298 222.643 13.0098 222.563 13.1298C222.483 13.2298 222.393 13.3398 222.293 13.4598C222.153 13.6598 221.963 13.9898 221.723 14.4498C221.503 14.8898 221.273 15.3298 221.033 15.7698C220.813 16.1898 220.643 16.4998 220.523 16.6998C220.503 16.7998 220.443 16.8998 220.343 16.9998C220.263 17.0998 220.203 17.2198 220.163 17.3598C220.083 17.4998 220.013 17.7098 219.953 17.9898C219.893 18.2498 219.863 18.4898 219.863 18.7098C219.863 18.9098 219.893 19.0198 219.953 19.0398C220.113 18.9998 220.223 19.0198 220.283 19.0998C220.363 19.1598 220.423 19.2698 220.463 19.4298C220.563 19.5698 220.533 19.7398 220.373 19.9398C220.213 20.1198 220.003 20.2698 219.743 20.3898C219.483 20.5298 219.243 20.5798 219.023 20.5398Z" fill="#34C759"/>
<path d="M244.924 20.5698C244.664 20.6298 244.444 20.5898 244.264 20.4498C244.104 20.3298 243.984 20.1498 243.904 19.9098C243.744 19.4498 243.624 18.9498 243.544 18.4098C243.484 17.8498 243.474 17.3598 243.514 16.9398L243.574 16.3098L242.404 17.2398C241.724 17.8398 241.064 18.2698 240.424 18.5298C239.804 18.7898 239.254 18.9198 238.774 18.9198C238.554 18.8798 238.334 18.7998 238.114 18.6798C237.894 18.5598 237.694 18.4098 237.514 18.2298C237.354 18.0498 237.224 17.8598 237.124 17.6598C237.004 17.3798 236.964 16.9998 237.004 16.5198C237.064 16.0398 237.184 15.5198 237.364 14.9598C237.564 14.3798 237.804 13.8198 238.084 13.2798C238.384 12.7198 238.724 12.2298 239.104 11.8098C239.764 10.8098 240.474 10.1998 241.234 9.9798C241.994 9.7598 242.744 9.8698 243.484 10.3098C244.004 10.5298 244.324 10.6298 244.444 10.6098C244.584 10.5898 244.704 10.3598 244.804 9.9198C244.884 9.5998 244.964 9.2798 245.044 8.9598C245.124 8.6198 245.254 8.1698 245.434 7.6098C245.934 6.0898 246.364 4.8998 246.724 4.03981C247.104 3.1798 247.444 2.4298 247.744 1.7898C247.964 1.3298 248.144 1.0498 248.284 0.949804C248.444 0.829804 248.604 0.779804 248.764 0.799804C248.984 0.799804 249.184 0.879804 249.364 1.0398C249.544 1.1998 249.684 1.4198 249.784 1.6998C249.864 1.8798 249.894 2.0398 249.874 2.1798C249.874 2.2998 249.814 2.46981 249.694 2.6898C249.434 3.1698 249.124 3.8098 248.764 4.60981C248.424 5.3898 248.074 6.2498 247.714 7.18981C247.374 8.1298 247.054 9.0598 246.754 9.9798C246.454 10.8998 246.204 11.7098 246.004 12.4098C245.884 12.8498 245.774 13.4098 245.674 14.0898C245.594 14.7698 245.524 15.4698 245.464 16.1898C245.404 16.8898 245.364 17.5198 245.344 18.0798C245.344 18.6198 245.364 18.9698 245.404 19.1298C245.524 19.5298 245.574 19.8298 245.554 20.0298C245.554 20.2298 245.504 20.3598 245.404 20.4198C245.304 20.4998 245.144 20.5498 244.924 20.5698ZM239.854 17.2398C240.134 17.1798 240.404 17.0698 240.664 16.9098C240.944 16.7498 241.234 16.5598 241.534 16.3398C242.134 15.8798 242.654 15.4598 243.094 15.0798C243.534 14.6998 243.824 14.1198 243.964 13.3398C244.004 12.9598 243.964 12.6598 243.844 12.4398C243.744 12.1998 243.574 11.9798 243.334 11.7798C243.094 11.6198 242.764 11.5598 242.344 11.5998C241.944 11.6198 241.524 11.8298 241.084 12.2298C240.604 12.6698 240.134 13.2598 239.674 13.9998C239.234 14.7398 238.904 15.6498 238.684 16.7298C238.644 16.9298 238.704 17.0898 238.864 17.2098C239.024 17.3298 239.354 17.3398 239.854 17.2398Z" fill="#34C759"/>
<path d="M249.502 18.9198C249.422 18.7598 249.322 18.6398 249.202 18.5598C249.082 18.4598 249.022 18.3698 249.022 18.2898C249.022 18.2098 249.012 18.1298 248.992 18.0498C248.992 17.9498 248.952 17.8598 248.872 17.7798C248.772 17.6598 248.782 17.3898 248.902 16.9698C249.022 16.5298 249.222 15.9998 249.502 15.3798C249.782 14.7398 250.112 14.0698 250.492 13.3698C250.652 13.2098 250.812 12.9998 250.972 12.7398C251.132 12.4798 251.252 12.3098 251.332 12.2298C251.332 12.1498 251.362 12.0798 251.422 12.0198C251.482 11.9398 251.552 11.8998 251.632 11.8998V11.7198C251.632 11.6198 251.722 11.4498 251.902 11.2098C252.102 10.9698 252.342 10.7098 252.622 10.4298C252.902 10.1298 253.192 9.84981 253.492 9.58981C253.792 9.30981 254.042 9.1098 254.242 8.98981C254.662 8.70981 255.092 8.5398 255.532 8.4798C255.992 8.4198 256.382 8.5198 256.702 8.77981C256.762 8.83981 256.862 8.9398 257.002 9.0798C257.142 9.2198 257.302 9.3798 257.482 9.5598C257.682 9.71981 257.882 9.8898 258.082 10.0698L259.192 11.0598L258.652 12.5598C258.392 13.3598 258.322 14.0598 258.442 14.6598C258.582 15.2598 258.782 15.7798 259.042 16.2198C259.142 16.4398 259.342 16.6498 259.642 16.8498C259.962 17.0498 260.262 17.1698 260.542 17.2098C260.702 17.2298 260.852 17.2898 260.992 17.3898C261.132 17.4898 261.202 17.6498 261.202 17.8698C261.202 18.0698 261.162 18.2298 261.082 18.3498C261.002 18.4698 260.862 18.5498 260.662 18.5898C260.002 18.6698 259.382 18.5098 258.802 18.1098C258.242 17.7098 257.722 17.0498 257.242 16.1298C257.162 16.0098 257.052 15.7898 256.912 15.4698C256.792 15.1298 256.722 14.9098 256.702 14.8098C256.622 14.9098 256.472 15.0998 256.252 15.3798C256.032 15.6398 255.862 15.8298 255.742 15.9498C254.322 17.3898 253.092 18.3598 252.052 18.8598C251.032 19.3398 250.182 19.3598 249.502 18.9198ZM250.582 17.2398C250.582 17.3798 250.792 17.3798 251.212 17.2398C251.652 17.0798 252.122 16.7998 252.622 16.3998C253.302 15.8198 253.982 15.1798 254.662 14.4798C255.362 13.7798 255.922 13.1298 256.342 12.5298L257.002 11.4498C256.802 10.9898 256.582 10.6798 256.342 10.5198C256.122 10.3398 255.932 10.2498 255.772 10.2498C255.512 10.2498 255.122 10.4898 254.602 10.9698C254.102 11.4498 253.562 12.0898 252.982 12.8898C252.402 13.6898 251.852 14.5698 251.332 15.5298C251.132 15.9298 250.952 16.3198 250.792 16.6998C250.652 17.0598 250.582 17.2398 250.582 17.2398Z" fill="#34C759"/>
<path d="M262.357 27.2298C261.917 27.3098 261.617 27.3198 261.457 27.2598C261.297 27.1998 261.077 27.0998 260.797 26.9598C260.577 26.7998 260.407 26.6798 260.287 26.5998C260.167 26.5198 260.107 26.4398 260.107 26.3598C260.107 26.2998 260.127 26.2298 260.167 26.1498C260.207 26.0898 260.277 26.0298 260.377 25.9698C260.497 25.9298 260.657 25.9098 260.857 25.9098C260.997 25.9898 261.227 26.0298 261.547 26.0298C261.887 26.0298 262.097 25.9898 262.177 25.9098C262.177 25.9098 262.267 25.8498 262.447 25.7298C262.647 25.6298 262.907 25.5498 263.227 25.4898C263.847 25.1898 264.397 24.8098 264.877 24.3498C265.357 23.8898 265.817 23.2898 266.257 22.5498C266.437 22.2698 266.627 21.9398 266.827 21.5598C267.027 21.1998 267.167 20.8398 267.247 20.4798C267.407 20.0798 267.587 19.5398 267.787 18.8598C268.007 18.1798 268.197 17.5098 268.357 16.8498C268.517 16.1698 268.607 15.6598 268.627 15.3198C268.747 14.1998 268.937 13.1698 269.197 12.2298C269.477 11.2698 269.717 10.1998 269.917 9.0198C270.037 8.7398 270.127 8.5798 270.187 8.5398C270.247 8.4798 270.377 8.4498 270.577 8.4498C270.797 8.4498 270.957 8.4698 271.057 8.5098C271.177 8.5298 271.307 8.6498 271.447 8.8698C271.647 9.2498 271.717 9.6998 271.657 10.2198C271.617 10.7198 271.467 11.1598 271.207 11.5398C271.007 11.8198 270.827 12.2598 270.667 12.8598C270.527 13.4398 270.387 14.1698 270.247 15.0498C270.147 15.4898 270.037 16.0098 269.917 16.6098C269.817 17.1898 269.707 17.8398 269.587 18.5598C269.507 18.7598 269.397 19.0698 269.257 19.4898C269.117 19.8898 269.027 20.2098 268.987 20.4498C268.967 20.5298 268.907 20.6898 268.807 20.9298C268.707 21.1698 268.607 21.3998 268.507 21.6198C268.407 21.8598 268.337 22.0198 268.297 22.0998C267.517 23.7198 266.627 24.9598 265.627 25.8198C264.627 26.6798 263.537 27.1498 262.357 27.2298ZM264.637 18.5298C264.417 18.5298 264.187 18.4098 263.947 18.1698C263.727 17.9298 263.577 17.7398 263.497 17.5998C263.417 17.3998 263.317 17.2098 263.197 17.0298C263.077 16.8498 262.987 16.6298 262.927 16.3698C262.887 16.1098 262.907 15.7898 262.987 15.4098C263.067 15.1498 263.177 14.7798 263.317 14.2998C263.477 13.7998 263.647 13.2598 263.827 12.6798C264.027 12.0998 264.227 11.5298 264.427 10.9698C264.647 10.3898 264.847 9.8798 265.027 9.4398C265.207 8.9798 265.367 8.6498 265.507 8.4498C265.627 8.2898 265.757 8.18981 265.897 8.14981C266.057 8.1098 266.217 8.12981 266.377 8.20981C266.537 8.26981 266.677 8.39981 266.797 8.5998C267.017 8.8798 267.107 9.1198 267.067 9.31981C267.027 9.5198 266.847 9.9098 266.527 10.4898C266.447 10.7098 266.347 10.9498 266.227 11.2098C266.107 11.4498 266.047 11.6098 266.047 11.6898C266.027 11.7298 265.987 11.8698 265.927 12.1098C265.887 12.3298 265.837 12.5398 265.777 12.7398C265.717 12.9398 265.657 13.0398 265.597 13.0398C265.517 13.1198 265.427 13.3498 265.327 13.7298C265.227 14.0898 265.137 14.4998 265.057 14.9598C264.977 15.3998 264.927 15.7898 264.907 16.1298C264.887 16.4498 264.917 16.6098 264.997 16.6098C265.617 16.6098 266.257 16.3698 266.917 15.8898C267.597 15.4098 268.277 14.7098 268.957 13.7898L269.467 15.9198C269.187 16.0598 268.927 16.2098 268.687 16.3698C268.447 16.5098 268.227 16.6798 268.027 16.8798C267.967 16.9598 267.827 17.0698 267.607 17.2098C267.387 17.3498 267.167 17.4798 266.947 17.5998C266.747 17.6998 266.617 17.7498 266.557 17.7498C266.557 17.7498 266.527 17.7598 266.467 17.7798C266.427 17.7798 266.407 17.8198 266.407 17.8998C266.407 17.9398 266.277 18.0198 266.017 18.1398C265.757 18.2398 265.487 18.3298 265.207 18.4098C264.927 18.4898 264.737 18.5298 264.637 18.5298Z" fill="#34C759"/>
<path d="M276.272 19.5798C275.272 19.5798 274.542 19.2198 274.082 18.4998C273.942 18.2998 273.872 18.0998 273.872 17.8998C273.892 17.6798 273.952 17.5298 274.052 17.4498C274.172 17.3698 274.312 17.4398 274.472 17.6598C274.752 17.8198 275.152 17.8998 275.672 17.8998C275.932 17.8998 276.202 17.8798 276.482 17.8398C276.762 17.7798 277.042 17.6998 277.322 17.5998C277.622 17.4598 277.822 17.3398 277.922 17.2398C278.022 17.1198 278.002 17.0198 277.862 16.9398H277.892C277.372 16.7998 276.842 16.5798 276.302 16.2798C275.782 15.9598 275.332 15.6198 274.952 15.2598C274.572 14.8798 274.352 14.5398 274.292 14.2398C274.132 13.6198 274.172 12.9898 274.412 12.3498C274.652 11.6898 274.992 11.1098 275.432 10.6098C275.592 10.5098 275.792 10.3898 276.032 10.2498C276.272 10.0898 276.462 9.99981 276.602 9.9798V10.0098C276.982 9.60981 277.442 9.2898 277.982 9.0498C278.542 8.8098 279.132 8.58981 279.752 8.3898L280.202 8.3298C280.442 8.2898 280.642 8.2698 280.802 8.2698C280.782 8.2698 280.822 8.2898 280.922 8.3298C281.022 8.3498 281.112 8.36981 281.192 8.3898C281.312 8.44981 281.412 8.4798 281.492 8.4798C281.752 8.5198 281.992 8.6398 282.212 8.8398C282.432 9.0398 282.602 9.2798 282.722 9.5598C282.862 9.81981 282.912 10.0698 282.872 10.3098C282.832 10.6898 282.712 11.0298 282.512 11.3298C282.332 11.6298 282.112 11.7998 281.852 11.8398C281.892 11.8198 281.862 11.7898 281.762 11.7498C281.682 11.6898 281.592 11.6298 281.492 11.5698L281.402 11.6298C281.402 11.6298 281.392 11.6098 281.372 11.5698C281.372 11.5098 281.352 11.4398 281.312 11.3598C281.252 11.2398 281.222 11.1098 281.222 10.9698C281.222 10.8098 281.232 10.6398 281.252 10.4598C281.292 10.2398 281.292 10.1098 281.252 10.0698C281.232 10.0298 281.102 9.99981 280.862 9.9798C280.582 9.91981 280.172 9.9698 279.632 10.1298C279.112 10.2898 278.672 10.5098 278.312 10.7898C277.872 11.0698 277.502 11.3398 277.202 11.5998C276.902 11.8398 276.662 12.0798 276.482 12.3198C276.302 12.5398 276.142 12.7998 276.002 13.0998C275.902 13.2398 275.812 13.3798 275.732 13.5198C275.672 13.6398 275.642 13.7498 275.642 13.8498C275.642 14.0698 275.802 14.2998 276.122 14.5398C276.462 14.7598 276.962 15.0198 277.622 15.3198C278.142 15.5398 278.582 15.7798 278.942 16.0398C279.302 16.2998 279.552 16.5998 279.692 16.9398C279.732 17.0198 279.742 17.1198 279.722 17.2398C279.722 17.3398 279.702 17.4098 279.662 17.4498C279.702 17.4898 279.722 17.5198 279.722 17.5398V17.5098C279.882 17.7498 279.882 17.9998 279.722 18.2598C279.582 18.5198 279.332 18.7498 278.972 18.9498C278.632 19.1298 278.212 19.2698 277.712 19.3698H277.742C277.482 19.4498 277.222 19.5098 276.962 19.5498C276.722 19.5698 276.492 19.5798 276.272 19.5798Z" fill="#34C759"/>
</svg>
