<svg width="48" height="47" viewBox="0 0 48 47" fill="none" xmlns="http://www.w3.org/2000/svg">
<g clip-path="url(#clip0_1121_41384)">
<rect x="0.786011" width="47" height="47" rx="15.6667" fill="#6360E1"/>
<rect opacity="0.2" x="-1.43341" y="12.3853" width="58.4611" height="58.4611" rx="18.7117" transform="rotate(-22.0173 -1.43341 12.3853)" fill="url(#paint0_linear_1121_41384)" fill-opacity="0.24"/>
<rect x="-1.21399" y="15" width="52.1945" height="48.912" rx="13.0004" transform="rotate(-22.0173 -1.21399 15)" fill="url(#paint1_linear_1121_41384)" fill-opacity="0.24"/>
<path d="M17.786 26C19.9993 26 21.786 24.2133 21.786 22C21.786 19.7867 19.9993 18 17.786 18C15.5727 18 13.786 19.7867 13.786 22C13.786 24.2133 15.5727 26 17.786 26ZM17.786 20.6667C18.5193 20.6667 19.1193 21.2667 19.1193 22C19.1193 22.7333 18.5193 23.3333 17.786 23.3333C17.0527 23.3333 16.4527 22.7333 16.4527 22C16.4527 21.2667 17.0527 20.6667 17.786 20.6667ZM33.786 16.6667H23.1193V27.3333H12.4527V14H9.78601V34H12.4527V30H36.4527V34H39.1193V22C39.1193 19.0533 36.7327 16.6667 33.786 16.6667ZM36.4527 27.3333H25.786V19.3333H33.786C35.2527 19.3333 36.4527 20.5333 36.4527 22V27.3333Z" fill="url(#paint2_linear_1121_41384)"/>
</g>
<defs>
<linearGradient id="paint0_linear_1121_41384" x1="-1.79085" y1="13.6972" x2="46.4767" y2="65.6648" gradientUnits="userSpaceOnUse">
<stop stop-color="white"/>
<stop offset="1" stop-color="white" stop-opacity="0"/>
</linearGradient>
<linearGradient id="paint1_linear_1121_41384" x1="-1.53311" y1="16.0976" x2="38.5736" y2="62.1767" gradientUnits="userSpaceOnUse">
<stop stop-color="white"/>
<stop offset="1" stop-color="white" stop-opacity="0"/>
</linearGradient>
<linearGradient id="paint2_linear_1121_41384" x1="10.6359" y1="10.2103" x2="29.2207" y2="38.5489" gradientUnits="userSpaceOnUse">
<stop stop-color="white"/>
<stop offset="1" stop-color="white" stop-opacity="0"/>
</linearGradient>
<clipPath id="clip0_1121_41384">
<rect x="0.786011" width="47" height="47" rx="15.6667" fill="white"/>
</clipPath>
</defs>
</svg>
