<svg width="48" height="47" viewBox="0 0 48 47" fill="none" xmlns="http://www.w3.org/2000/svg">
<g clip-path="url(#clip0_1121_41231)">
<rect x="0.786011" width="47" height="47" rx="7.83333" fill="#EDE8E7"/>
<g clip-path="url(#clip1_1121_41231)">
<rect x="0.786011" width="47" height="43.7361" rx="7.83333" fill="#FFFBFA"/>
<path d="M19.3759 18.2272V34.848H16.86V20.7431H16.7627L12.786 23.3401V20.9378L16.9331 18.2272H19.3759Z" fill="#FF1818"/>
<path d="M29.2175 35.0752C28.4763 35.0644 27.7459 34.9291 27.0263 34.6694C26.3121 34.4097 25.6629 33.9769 25.0786 33.3709C24.4942 32.765 24.0262 31.9507 23.6746 30.9282C23.3283 29.9056 23.1552 28.6287 23.1552 27.0976C23.1552 25.6476 23.2985 24.3599 23.5853 23.2346C23.8774 22.1092 24.2967 21.1597 24.8432 20.386C25.3896 19.6069 26.0497 19.0145 26.8234 18.6087C27.5971 18.2029 28.4655 18 29.4285 18C30.4186 18 31.2978 18.1948 32.0661 18.5843C32.8344 18.9739 33.4566 19.5122 33.9327 20.1993C34.4142 20.8864 34.7199 21.6683 34.8497 22.5447H32.3745C32.2068 21.8522 31.874 21.2868 31.3763 20.8486C30.8785 20.4103 30.2293 20.1912 29.4285 20.1912C28.2112 20.1912 27.2616 20.7214 26.5799 21.7819C25.9036 22.8423 25.5628 24.3166 25.5574 26.2049H25.6791C25.9659 25.7342 26.3175 25.3338 26.7341 25.0038C27.1561 24.6683 27.6268 24.4113 28.1462 24.2328C28.6711 24.0488 29.2229 23.9569 29.8018 23.9569C30.7649 23.9569 31.636 24.1922 32.4151 24.6629C33.1996 25.1282 33.8245 25.772 34.2898 26.5944C34.7551 27.4168 34.9877 28.3582 34.9877 29.4187C34.9877 30.4791 34.7469 31.4394 34.2654 32.2997C33.7893 33.1599 33.1184 33.8417 32.2527 34.3448C31.3871 34.8426 30.3753 35.086 29.2175 35.0752ZM29.2094 32.9652C29.8478 32.9652 30.4186 32.8083 30.9218 32.4945C31.425 32.1807 31.8226 31.7586 32.1148 31.2284C32.4069 30.6982 32.553 30.1058 32.553 29.4511C32.553 28.8127 32.4096 28.2311 32.1229 27.7063C31.8416 27.1815 31.452 26.7648 30.9542 26.4565C30.4619 26.1481 29.8992 25.9939 29.2662 25.9939C28.7847 25.9939 28.3383 26.0858 27.9271 26.2698C27.5213 26.4538 27.1643 26.708 26.8559 27.0327C26.5475 27.3573 26.304 27.7306 26.1255 28.1526C25.9523 28.5692 25.8658 29.0102 25.8658 29.4755C25.8658 30.0977 26.0091 30.6739 26.2959 31.2041C26.5881 31.7343 26.9857 32.1617 27.4889 32.4863C27.9975 32.8056 28.571 32.9652 29.2094 32.9652Z" fill="#FF1818"/>
</g>
<rect x="0.753372" y="-0.0326389" width="47.0653" height="43.8014" rx="7.86597" stroke="black" stroke-opacity="0.1" stroke-width="0.0652778"/>
<g clip-path="url(#clip2_1121_41231)">
<rect width="53.3972" height="10.4444" transform="translate(-2.4126)" fill="#AF8477"/>
<rect x="-2.4126" y="-0.391602" width="53.3972" height="11.4889" fill="#FF1818"/>
<rect x="-2.44524" y="-0.42424" width="53.4625" height="11.5542" stroke="black" stroke-opacity="0.1" stroke-width="0.0652778"/>
<rect opacity="0.1" x="0.786011" y="10.3789" width="47" height="0.0652778" fill="black"/>
</g>
<mask id="path-9-outside-1_1121_41231" maskUnits="userSpaceOnUse" x="15.2568" y="1.61084" width="18" height="7" fill="black">
<rect fill="white" x="15.2568" y="1.61084" width="18" height="7"/>
<path fill-rule="evenodd" clip-rule="evenodd" d="M26.6032 4.24293H30.5853C31.5407 4.24293 32.3152 5.01742 32.3152 5.9728C32.3152 6.92817 31.5407 7.70266 30.5853 7.70266H17.9867C17.0313 7.70266 16.2568 6.92817 16.2568 5.9728C16.2568 5.01742 17.0313 4.24293 17.9867 4.24293H21.9503C22.2944 3.29109 23.2062 2.61084 24.2767 2.61084C25.3473 2.61084 26.259 3.29109 26.6032 4.24293Z"/>
</mask>
<path fill-rule="evenodd" clip-rule="evenodd" d="M26.6032 4.24293H30.5853C31.5407 4.24293 32.3152 5.01742 32.3152 5.9728C32.3152 6.92817 31.5407 7.70266 30.5853 7.70266H17.9867C17.0313 7.70266 16.2568 6.92817 16.2568 5.9728C16.2568 5.01742 17.0313 4.24293 17.9867 4.24293H21.9503C22.2944 3.29109 23.2062 2.61084 24.2767 2.61084C25.3473 2.61084 26.259 3.29109 26.6032 4.24293Z" fill="#E3DFDE"/>
<path d="M26.6032 4.24293L26.5418 4.26513L26.5573 4.30821H26.6032V4.24293ZM21.9503 4.24293V4.30821H21.9961L22.0117 4.26513L21.9503 4.24293ZM26.6032 4.30821H30.5853V4.17766H26.6032V4.30821ZM30.5853 4.30821C31.5046 4.30821 32.2499 5.05347 32.2499 5.9728H32.3804C32.3804 4.98137 31.5767 4.17766 30.5853 4.17766V4.30821ZM32.2499 5.9728C32.2499 6.89212 31.5046 7.63738 30.5853 7.63738V7.76793C31.5767 7.76793 32.3804 6.96422 32.3804 5.9728H32.2499ZM30.5853 7.63738H17.9867V7.76793H30.5853V7.63738ZM17.9867 7.63738C17.0674 7.63738 16.3221 6.89212 16.3221 5.9728H16.1916C16.1916 6.96422 16.9953 7.76793 17.9867 7.76793V7.63738ZM16.3221 5.9728C16.3221 5.05347 17.0674 4.30821 17.9867 4.30821V4.17766C16.9953 4.17766 16.1916 4.98137 16.1916 5.9728H16.3221ZM17.9867 4.30821H21.9503V4.17766H17.9867V4.30821ZM22.0117 4.26513C22.3468 3.33832 23.2345 2.67612 24.2767 2.67612V2.54556C23.1778 2.54556 22.2421 3.24386 21.8889 4.22074L22.0117 4.26513ZM24.2767 2.67612C25.3189 2.67612 26.2067 3.33832 26.5418 4.26513L26.6645 4.22074C26.3113 3.24386 25.3757 2.54556 24.2767 2.54556V2.67612Z" fill="black" fill-opacity="0.3" mask="url(#path-9-outside-1_1121_41231)"/>
</g>
<rect x="0.81865" y="0.0326389" width="46.9347" height="46.9347" rx="7.80069" stroke="black" stroke-opacity="0.1" stroke-width="0.0652778"/>
<defs>
<clipPath id="clip0_1121_41231">
<rect x="0.786011" width="47" height="47" rx="7.83333" fill="white"/>
</clipPath>
<clipPath id="clip1_1121_41231">
<rect x="0.786011" width="47" height="43.7361" rx="7.83333" fill="white"/>
</clipPath>
<clipPath id="clip2_1121_41231">
<rect width="53.3972" height="10.4444" fill="white" transform="translate(-2.4126)"/>
</clipPath>
</defs>
</svg>
